<svg width="853" height="853" viewBox="0 0 853 853" fill="none" xmlns="http://www.w3.org/2000/svg">
<path d="M424.974 736.25C358.204 736.25 293.521 717.347 237.563 681.546C232.403 690.646 222.19 699.429 215.646 702.806C208.927 706.277 200.848 708.341 194.023 708.341C190.423 708.341 187.139 707.79 184.255 706.711C179.013 704.741 176.468 699.37 174.229 694.633C173.478 693.038 172.763 691.537 172.048 690.399C152.875 659.559 133.867 627.945 115.48 597.362C110.695 589.4 105.911 581.45 101.126 573.487C99.1212 570.333 98.8046 567.566 98.9571 564.376C99.3088 557.199 103.636 537.147 106.192 528.435C86.6209 484.085 76.6886 436.828 76.6886 387.964C76.6886 339.1 86.832 290.776 106.837 246.016C101.056 231.335 96.1193 217.427 91.7922 203.661C70.931 198.337 53.2593 178.93 50.9375 158.279C50.0346 150.235 51.2424 142.437 52.415 134.885C53.4821 128.002 54.5023 121.494 53.9512 115.009C53.6463 111.362 52.5088 107.821 51.2893 104.068C50.3512 101.149 49.3779 98.1349 48.7564 94.9218C48.2756 92.4007 49.9056 89.9498 52.4267 89.4456C53.06 89.3166 53.6815 89.2463 54.2912 89.2463C58.032 89.2463 60.26 91.5681 61.5968 92.9518C62.0072 93.3857 62.4763 93.8665 62.746 94.0306C71.5994 99.1902 80.5701 100.14 90.0802 101.149C102.018 102.415 114.366 103.717 127.687 112.969C155.689 132.399 151.327 157.588 142.579 184.042C208.13 93.4443 312.846 39.6906 424.974 39.6906C550.165 39.6906 665.107 106.554 727.222 214.812C732.475 203.051 737.506 192.18 742.501 181.779C743.205 180.313 744.612 179.328 746.218 179.152C751.366 178.59 756.96 173.055 762.366 167.696C768.288 161.833 774.42 155.77 781.574 154.621C782.793 154.422 783.977 154.328 785.103 154.328C798.53 154.328 801.039 168.024 801.86 172.527C802.822 177.769 803.244 182.858 803.654 187.771C804.147 193.681 804.616 199.275 805.941 205.232C806.645 208.433 804.698 214.402 781.163 264.978C777.751 272.319 775.054 278.123 774.045 280.445C770.41 288.923 766.869 297.695 763.527 306.032C769.976 332.78 773.248 360.349 773.248 387.988C773.248 415.627 770.164 441.624 764.066 467.657L795.927 484.168C797.381 484.918 798.342 486.384 798.448 488.025L798.565 489.867C798.624 490.711 798.448 491.567 798.061 492.317L714.405 655.185C714.123 655.725 713.748 656.217 713.279 656.616C711.848 657.835 709.843 658.48 707.474 658.48C706.407 658.48 705.329 658.351 704.367 658.105C698.023 656.463 684.913 649.709 675.332 644.772C672.87 643.506 670.689 642.38 668.988 641.536C668.461 641.278 667.616 640.867 666.561 640.363C666.221 640.199 665.869 640.035 665.494 639.847C600.389 702.055 515.115 736.273 424.962 736.273L424.974 736.25Z" fill="#FAB7E1"/>
<path d="M424.974 44.3811C555.887 44.3811 669.692 117.601 727.691 225.319C733.835 211.365 740.144 197.504 746.734 183.808C759.762 182.389 770.515 161.152 782.324 159.241C783.321 159.077 784.247 159.007 785.103 159.007C793.1 159.007 795.821 165.573 797.251 173.36C799.268 184.406 798.811 194.737 801.367 206.24C802.223 210.098 773.67 269.446 769.741 278.581C765.907 287.516 762.26 296.581 758.625 305.668C765.109 332.041 768.569 359.598 768.569 387.976C768.569 416.354 765.121 443.794 758.66 470.119L793.78 488.319L793.898 490.16L710.242 653.028C709.608 653.567 708.541 653.778 707.486 653.778C706.794 653.778 706.102 653.684 705.551 653.543C698.14 651.632 679.12 641.313 671.087 637.314C669.985 636.763 667.464 635.579 664.603 634.183C602.699 694.433 518.187 731.571 424.974 731.571C354.944 731.571 289.827 710.604 235.511 674.628C232.614 684.255 220.137 695.207 213.488 698.643C208.071 701.434 200.765 703.662 194.011 703.662C191.138 703.662 188.371 703.263 185.896 702.325C180.995 700.484 178.931 692.604 176.023 687.925C151.948 649.216 128.625 610.062 105.102 571.013C103.706 568.844 103.518 567.132 103.636 564.611C103.988 557.516 108.772 535.494 111.188 528.142C92.0383 485.34 81.3787 437.907 81.3787 387.976C81.3787 338.045 92.308 289.381 111.938 246.145C105.875 230.866 100.329 215.399 95.4742 199.697C76.0432 195.968 57.8673 177.827 55.6158 157.775C53.9976 143.34 59.8608 129.116 58.6529 114.634C58.0549 107.422 54.7363 101.02 53.3995 94.0424C53.7279 93.972 54.0445 93.9485 54.3376 93.9485C57.1168 93.9485 58.1956 96.7863 60.4236 98.088C81.4256 110.33 102.088 100.879 125.06 116.827C151.925 135.472 146.238 159.03 136.974 186.118C138.029 189.343 139.073 192.567 140.128 195.792C201.868 104.432 306.408 44.3811 424.974 44.3811ZM768.616 489.937C768.616 487.474 767.15 485.375 763.421 485.375C767.15 485.375 768.616 487.486 768.616 489.937ZM424.974 35C395.118 35 365.451 38.7407 336.791 46.1049C308.976 53.258 282.053 63.8469 256.759 77.5785C217.171 99.073 181.804 128.248 153.027 162.947C153.872 157.834 154.247 152.721 153.907 147.667C152.851 131.977 145.159 119.36 130.384 109.111C116.077 99.1785 102.533 97.7479 90.596 96.4815C81.3318 95.4964 73.3109 94.6521 65.4308 90.1492C65.3018 90.0202 65.1259 89.8443 64.9969 89.7036C63.3904 88.0385 60.0484 84.5557 54.3142 84.5557C53.3878 84.5557 52.4497 84.6495 51.5116 84.8489C46.481 85.8808 43.1976 90.759 44.1709 95.813C44.8393 99.3075 45.8595 102.462 46.8445 105.511C47.9702 109.005 49.0373 112.3 49.2953 115.408C49.7878 121.33 48.8145 127.568 47.7943 134.17C46.5748 142.027 45.3083 150.141 46.2816 158.807C48.709 180.442 66.5683 200.811 88.0865 207.483C92.0735 219.995 96.5764 232.637 101.759 245.899C82.0119 290.741 71.9976 338.514 71.9976 387.964C71.9976 437.414 81.8243 484.273 101.22 528.775C98.5582 538.426 94.6299 556.906 94.2781 564.142C94.1022 567.659 94.3367 571.529 97.1393 575.95C101.9 583.854 106.661 591.769 111.41 599.684C129.821 630.314 148.853 661.975 168.06 692.874C168.635 693.788 169.28 695.172 169.984 696.638C172.341 701.633 175.577 708.458 182.601 711.097C186.014 712.375 189.848 713.031 194.011 713.031C201.657 713.031 210.322 710.827 217.792 706.969C223.104 704.225 232.626 696.872 238.993 687.996C294.799 722.659 358.872 740.94 424.974 740.94C471.774 740.94 517.249 731.923 560.12 714.122C599.498 697.775 635.216 674.698 666.373 645.441C666.573 645.534 666.749 645.628 666.901 645.699C668.554 646.519 670.7 647.622 673.175 648.9C685.851 655.431 696.85 660.966 703.194 662.608C704.531 662.96 706.008 663.136 707.474 663.136C710.969 663.136 714.029 662.104 716.328 660.145C717.254 659.348 718.028 658.386 718.579 657.296L802.235 494.428C803.009 492.915 803.361 491.215 803.255 489.526L803.138 487.685C802.927 484.414 801.004 481.482 798.096 479.969L769.46 465.136C775.1 439.877 777.95 413.95 777.95 387.953C777.95 360.442 774.749 333.014 768.44 306.36C771.7 298.234 774.936 290.248 778.36 282.263C779.334 279.999 782.148 273.937 785.42 266.913C790.38 256.242 796.571 242.956 801.579 231.652C811.218 209.923 811.288 207.648 810.514 204.177C809.259 198.524 808.802 193.083 808.321 187.338C807.899 182.307 807.465 177.112 806.468 171.636C805.777 167.86 804.487 162.313 801.285 157.799C797.474 152.428 791.869 149.59 785.103 149.59C783.731 149.59 782.289 149.708 780.835 149.942C772.192 151.337 765.52 157.939 759.07 164.319C754.685 168.657 749.232 174.063 745.714 174.438C742.489 174.79 739.675 176.784 738.279 179.704C734.457 187.666 730.61 195.909 726.659 204.599C697.354 156.474 656.828 115.853 608.574 86.3968C553.401 52.7889 489.915 35 424.974 35Z" fill="white"/>
<path d="M327.035 750.79C293.216 750.79 264.404 733.037 247.988 702.091C242.195 691.162 239.146 680.96 238.642 670.559C204.6 662.151 178.04 633.96 169.855 596.694C162.104 561.433 170.265 534.075 177.453 509.954C179.881 501.804 182.39 493.373 184.302 484.707C192.463 447.464 192.862 406.75 193.249 367.385C193.425 348.693 193.612 329.403 194.609 310.359C197.118 262.011 214.427 218.483 244.634 184.453C273.012 152.51 312.741 128.94 359.541 116.287C382.853 109.99 407.044 106.789 431.435 106.789C492.764 106.789 546.213 126.841 582.577 163.357C586.681 162.958 590.738 162.759 594.678 162.759C609.817 162.759 646.251 166.5 657.426 201.104C662.633 217.216 661.8 237.996 654.964 262.844C653.111 269.563 650.343 277.936 644.926 285.851C653.943 311.661 657.356 338.057 660.674 363.632C663.324 384.083 665.822 403.396 670.993 421.15C674.781 434.166 681.594 447.077 688.806 460.762C705.235 491.907 725.674 530.663 708.401 579.011C695.396 615.398 666.631 646.66 630.842 663.605C629.353 673.713 625.413 683.95 619.292 693.531C610.732 706.934 597.879 719.317 584.007 727.525C570.205 735.699 553.448 740.202 536.82 740.202C523.112 740.202 509.896 737.211 498.287 731.524C485.083 737.176 472.173 739.791 462.123 741.456C447.606 743.86 433.476 745.08 420.119 745.08C403.726 745.08 387.93 743.239 373.108 739.603C358.333 746.932 342.49 750.802 327.059 750.802L327.035 750.79Z" fill="white"/>
<path d="M324.514 741.362C294.307 741.362 268.532 725.438 253.792 697.67C246.545 684.009 244.822 673.197 245.654 662.842C212.011 657.824 184.489 630.865 176.527 594.665C169.304 561.784 176.75 536.796 183.95 512.639C186.436 504.313 188.992 495.706 190.962 486.724C199.335 448.519 199.734 407.301 200.121 367.443C200.297 348.868 200.484 329.661 201.469 310.84C203.873 264.65 220.349 223.115 249.137 190.703C276.284 160.132 314.441 137.547 359.459 125.375C381.973 119.289 405.332 116.205 428.902 116.205C489.903 116.205 541.828 136.375 576.503 173.242C581.193 172.621 586.505 172.164 592.134 172.164C629.987 172.164 642.076 192.098 645.911 203.977C650.543 218.319 649.675 237.268 643.331 260.323C641.138 268.273 638.031 276.833 631.769 284.233C641.76 310.582 645.325 338.104 648.784 364.84C651.481 385.654 654.026 405.308 659.396 423.765C663.454 437.696 670.478 451.029 677.924 465.147C694.294 496.187 712.857 531.378 696.968 575.821C684.186 611.598 654.659 642.181 619.468 657.226C618.929 667.556 615.329 678.216 608.797 688.441C601.011 700.637 589.296 711.929 576.655 719.399C564.284 726.716 549.227 730.75 534.276 730.75C520.357 730.75 507.188 727.349 496.06 721.005C482.75 727.385 469.124 730.293 458.031 732.122C444.018 734.444 430.403 735.616 417.563 735.616C400.63 735.616 384.471 733.576 369.415 729.542C355.026 737.282 339.653 741.327 324.491 741.327L324.514 741.362Z" fill="black"/>
<path d="M251.154 644.538C221.99 641.583 201.012 618.177 194.949 590.62C186.459 551.981 201.61 526.254 209.385 490.758C222.166 432.489 217.23 370.938 220.302 311.825C224.852 224.358 282.205 165.796 364.372 143.586C433.792 124.824 521.658 135.167 569.338 193.682C587.76 189.507 620.758 187.478 627.97 209.794C632.273 223.126 628.849 241.912 625.155 255.339C622.47 265.095 619.081 272.987 609.923 278.135L609.63 280.246C631.288 326.694 627.313 381.011 641.291 429.054C655.316 477.249 698.68 515.043 679.226 569.512C666.596 604.856 635.111 634.265 599.052 644.549C606.933 667.299 585.485 692.299 567.063 703.205C546.131 715.588 515.772 715.377 497.185 698.772C484.626 707.203 469.757 711.108 454.959 713.559C425.607 718.414 395.377 718.472 366.905 709.173C332.617 731.383 290.508 726.681 270.432 688.84C261.309 671.649 263.772 662.608 268.697 644.538C263.033 644.127 256.701 645.1 251.131 644.538H251.154Z" fill="black"/>
<path d="M498.44 150.902C497.279 148.616 493.409 148.112 491.052 147.385C423.121 126.489 332.664 144.078 279.614 191.699C207.93 256.041 227.279 331.852 222.248 418.159C220.853 442.022 218.308 471.056 212.844 494.181C207.626 516.261 197.881 537.404 196.544 560.47C194.269 599.8 213.336 640.667 257.345 640.245C214.896 618.68 221.686 562.932 230.762 523.954C232.919 523.673 234.268 524.036 234.596 526.346C235.007 529.243 230.668 545.39 229.964 550.209C225.801 578.892 226.294 613.708 251.728 632.552C255.035 635.003 267.078 642.742 270.678 640.28L278.136 625.024C252.69 611.574 247.097 578.505 252.069 552.379C252.397 550.643 254.895 537.521 257.826 541.966C258.19 548.908 254.988 556.061 254.449 563.308C252.866 584.544 259.151 611.48 279.649 621.717C289.534 606.027 298.247 587.03 315.977 578.798L319.976 567.131C304.263 561.22 292.888 546.621 291.375 529.782C279.801 526.968 271.487 514.749 267.031 504.289C265.249 500.091 261.59 483.357 260.676 482.173C259.925 481.2 256.431 480.906 254.531 479.769C228.51 464.161 223.128 419.976 251.682 404.661L249.7 382.065L250.638 380.083L253.534 379.672C256.009 409.176 257.592 439.02 262.212 468.289C265.648 490.006 270.115 515.839 291.493 526.803C291.141 517.117 294.424 507.103 301.917 500.642L301.507 499.258C287.904 489.174 286.884 465.322 284.985 449.327C283.343 435.607 282.604 421.688 281.818 407.874C278.957 402.445 273.645 397.79 274.431 391.071L282.018 392.959C281.596 383.613 279.59 373.411 280.247 364.135C281.349 348.48 290.531 334.549 292.466 318.93C290.379 318.414 290.355 320.126 289.429 321.099C286.474 324.207 284.386 328.088 281.56 331.266C278.465 334.76 273.094 341.339 268.345 340.717C259.902 339.615 242.629 314.931 236.027 308.435C233.799 302.982 237.633 299.91 238.302 295.594C240.741 279.74 239.205 273.197 246.182 256.956C276.143 187.125 368.957 151.16 440.91 160.506C452.156 161.972 463.284 165.056 474.295 167.648C480.733 160.448 488.203 151.758 498.463 150.891L498.44 150.902Z" fill="black"/>
<path d="M549.707 197.422C540.408 179.223 527.474 156.673 504.608 154.726C477.332 152.416 461.912 195.827 467.541 217.416C473.521 240.376 513.062 236.635 530.722 232.543L526.993 219.679L513.637 218.319L514.2 215.387L528.858 215.07L532.247 207.941C532.681 203.79 519.324 199.498 520.298 194.584C521.74 193.107 533.9 200.846 533.595 204.071L534.956 204.048C538.919 200.166 543.915 197 549.707 197.422Z" fill="black"/>
<path d="M471.857 171.812C427.93 159.663 380.579 159.745 338.622 178.578C294.812 198.231 249.443 234.431 242.149 284.76L257.311 257.696C266.047 243.53 277.281 232.414 290.825 222.857C339.349 188.628 406.729 173.805 464.681 188.78L471.869 171.812H471.857Z" fill="black"/>
<path d="M564.834 196.39C566.84 193.517 543.797 173.922 540.221 171.8L554.07 195.44C558.596 199.591 559.816 199.533 564.834 196.39Z" fill="black"/>
<path d="M549.661 241.103C543.75 245.008 533.572 235.557 531.238 235.439C529.82 235.369 524.027 237.609 521.435 237.984C487.687 242.886 454.161 236.542 464.152 194.174C463.694 192.403 446.867 189.484 443.724 189.026C398.519 182.342 346.337 194.444 307.006 217.205C291.117 226.398 274.982 237.808 264.92 253.428C278.652 260.17 288.397 275.309 298.892 286.32L290.613 302.35C298.833 307.885 296.042 321.136 294.072 329.579C292.044 338.256 283.741 354.439 284.844 362.155C285.031 363.48 284.316 363.796 286.239 363.538C291.141 362.905 302.023 357.98 306.877 355.682C325.78 346.746 344.554 332.557 357.911 316.527C359.564 314.545 366.26 304.074 366.975 303.757C367.374 303.581 369.332 303.382 369.332 304.215C367.726 319.084 358.122 331.607 349.761 343.498L338.949 354.978C378.643 350.991 416.332 321.957 433.089 286.332C439.292 273.14 442.763 258.751 448.345 245.583C448.79 244.527 449.857 240.294 451.417 241.091C454.489 248.561 456.025 256.488 458.793 264.099C464.539 279.882 474.811 300.697 484.368 314.463C500.656 337.928 524.988 353.055 553.483 356.901C553.741 358.203 553.132 359.2 551.889 359.598C547.925 360.876 536.222 356.831 531.649 355.951L535.917 367.314L539.705 365.438C544.044 370.164 537.688 375.699 538.216 381.116C538.427 383.227 539.951 384.376 540.15 385.889C544.348 416.518 546.799 448.93 545.932 479.864C545.861 482.198 542.355 502.93 546.365 503.059C559.452 494.686 564.846 479.454 566.769 464.631C568.165 453.82 566.992 444.708 566.746 434.307C566.441 421.619 566.196 408.943 565.879 396.255L561.551 346.441C563.005 343.768 564.365 348.845 564.635 350.03C566.64 358.766 566.042 368.956 568.2 377.798C599.462 391.213 599.638 439.408 570.733 455.309C570.229 474.294 565.186 498.908 546.037 507.022C546.178 525.527 538.884 539.903 525.281 551.97L527.978 561.831C543.797 565.889 555.864 574.355 566.805 586.129C568.962 588.45 571.859 593.551 573.876 595.205C574.861 596.002 574.884 596.624 576.303 595.686C577.722 594.747 584.301 579.574 585.087 576.935C590.212 559.779 589.812 532.703 585.285 515.454C584.617 512.932 579.926 501.523 580.067 500.76C580.255 499.834 581.697 498.955 582.94 499.752C586.974 502.344 592.087 529.303 592.45 534.861C593.846 556.637 591.582 583.045 577.276 600.4L581.521 605.618C584.84 606.439 597.283 586.809 598.924 583.174C600.648 579.339 604.024 565.373 605.255 563.872C606.334 562.57 607.014 562.805 608.55 562.899C606.909 579.058 599.955 592.871 589.143 604.703C587.584 606.403 583.937 607.435 583.89 609.851L598.583 640.703C630.315 616.863 648.549 579.796 645.571 539.645C645.254 535.33 639.65 510.892 640.846 509.731L643.778 510.294C644.985 519.863 648.619 530.147 649.37 539.657C652.337 576.982 637.128 612.314 609.512 636.927C639.649 626.033 668.038 596.612 677.396 565.748C692.5 515.97 652.196 476.381 638.476 431.88C630.162 404.944 629.048 376.66 624.557 348.974C620.769 325.65 615.752 302.467 606.769 280.586C594.808 279.859 584.769 275.11 575.048 268.437C565.327 261.765 554.199 251.833 549.672 241.091L549.661 241.103Z" fill="black"/>
<path d="M563.322 254.049C570.909 261.894 593.048 277.677 604.2 276.176C612.209 275.098 617.873 265.81 620.218 258.915C624.932 245.043 630.666 216.829 620.898 204.54C611.13 192.251 582.6 193.658 569.654 197.915C567.743 198.548 561.915 200.365 562.137 202.488C562.36 204.61 568.176 211.447 566.793 215.457C570.006 211.939 586.27 214.015 577.698 217.357C569.572 220.511 567.79 215.246 565.069 227.524C564.905 228.251 564.799 228.954 564.881 229.693L574.345 233.539C574.661 242.24 565.034 232.226 562.653 232.683L553.565 240.728C553.354 241.924 561.833 252.513 563.322 254.037V254.049Z" fill="black"/>
<path d="M545.65 201.443C539.916 202.628 534.135 210.566 532.669 215.996C526.642 238.323 552.569 245.593 561.786 226.127C567.25 214.6 560.144 198.441 545.65 201.443Z" fill="black"/>
<path d="M477.555 311.331L460.294 278.767L450.033 250.6C441.883 274.147 434.566 297.588 417.774 316.596C404.171 331.981 384.002 346.85 364.383 353.394C359.036 355.176 333.109 361.661 329.439 359.315L328.958 356.888C342.314 349.395 352.317 335.311 359.634 322.072C360.092 321.24 361.733 319.704 360.314 318.953C341.165 342.183 313.573 360.922 283.94 367.407L284.843 393.955L293.392 392.994C292.231 388.76 287.411 386.755 288.654 381.619C291.492 380.798 295.139 383.941 297.473 383.366C298.516 383.108 299.888 381.185 301.272 380.47C336.697 362.13 365.146 386.263 361.722 423.834C359.716 445.903 338.679 466.67 317.185 451.321C300.838 439.653 299.525 414.746 307.628 397.743C306.092 395.867 289.053 417.232 290.437 421.371L286.743 421.465C288.396 439.571 288.912 458.896 292.747 476.697C295.01 487.168 298.071 497.335 310.254 499.059C318.78 500.267 328.852 496.725 332.898 506.833C341.822 504.277 350.769 507.83 353.408 517.129C385.62 529.383 428.796 535.727 460.505 518.806C467.798 514.913 471.656 508.018 478.786 503.867C480.287 502.999 482.327 503.444 483.723 502.154C485.447 500.571 486.396 495.424 489.551 492.797C494.628 488.575 500.527 490.792 501.336 490.323C502.767 489.49 502.602 485.585 506.976 483.65C513.027 480.977 517.061 484.6 519.711 483.955C520.872 483.674 521.611 481.012 523.17 479.898C529.679 475.219 536.679 478.655 541.147 484.119C542.66 483.005 542.284 451.309 542.109 446.56C541.722 435.783 540.971 419.167 539.036 408.871C538.169 404.216 523.944 387.998 519.77 384.48C518.691 383.566 511.573 378.019 510.776 378.769C529.432 401.214 515.349 452.118 480.838 440.497C448.239 429.521 455.017 352.643 498.674 358.119C508.899 359.397 514.469 367.676 523.604 357.896C528.025 360.699 521.998 367.84 522.619 369.283L526.419 372.097L531.731 369.576L528.67 354.226C511.573 347.87 496.423 336.508 485.13 322.225C478.528 323.972 460.763 327.748 456.576 321.345C452.109 314.509 472.946 309.021 477.555 311.343V311.331Z" fill="black"/>
<path d="M287.588 300.779C288.491 295.983 295.679 290.706 293.65 285.98C286.403 278.792 279.79 269.422 272.414 262.551C270.514 260.78 265.601 256.265 263.021 257.649C261.098 258.693 252.549 271.897 253.276 274.007C254.367 277.173 264.358 287.868 267.313 290.424C270.291 292.992 284.351 302.842 287.576 300.779H287.588Z" fill="black"/>
<path d="M249.748 278.122L238.584 305.022C240.366 307.872 242.407 310.628 244.506 313.254C249.044 318.93 257.323 328.229 262.518 333.213C264.206 334.842 266.88 336.789 269.037 337.786C272.18 337.528 289.758 315.787 291.036 312.234C293.721 304.741 282.804 304.178 277.738 301.856C273.353 299.839 266.587 295.172 263.034 291.889C259.176 288.324 255.693 282.156 252.151 279.037C251.331 278.31 251.096 277.817 249.771 278.11L249.748 278.122Z" fill="black"/>
<path d="M570.592 449.925C577.839 447.674 582.893 438.633 585.285 431.878C591.5 414.394 586.939 391.164 569.173 382.522L570.592 449.925Z" fill="black"/>
<path d="M252.573 409.118C246.323 410.079 242.687 415.79 240.377 421.114C231.301 442.057 238.313 469.309 260.171 478.397L252.573 409.106V409.118Z" fill="black"/>
<path d="M467.13 577.134C468.842 578.401 471.75 572.221 472.829 570.99C481.085 561.632 497.982 549.671 510.553 547.959C513.825 547.513 521.986 548.522 523.159 548.123C528.072 546.423 537.946 531.003 539.716 525.866C543.434 515.066 542.742 497.336 537.852 486.958C534.029 478.844 524.425 481.013 521.634 488.799C514.892 486.173 505.042 484.554 504.924 494.381C499.624 495.683 497.759 491.883 492.049 496.128C488.355 498.872 488.402 504.689 486.69 506.049C485.306 507.151 481.085 507.198 478.212 508.957C468.244 515.066 460.458 533.031 459.508 544.359C458.511 556.332 461.689 566.733 467.154 577.146L467.13 577.134Z" fill="black"/>
<path d="M314.277 504.054C299.091 498.25 294.295 520.119 295.303 531.095C296.406 543.091 309.762 561.795 321.864 564.387C324.197 564.891 326.402 563.026 328.993 562.897C344.261 562.1 356.515 566.286 368.406 575.703L381.68 591.369C383.814 571.223 390.264 552.215 376.391 534.496C371.806 528.633 363.469 523.344 356.327 521.339C354.533 520.835 351.602 521.609 350.3 520.718C349.198 519.955 349.233 513.67 344.589 511.231C338.257 507.901 334.598 511.489 328.524 511.641L328.055 505.931C322.919 500.536 317.748 506.962 312.389 507.83L314.277 504.054Z" fill="black"/>
<path d="M462.369 522.091C435.973 534.638 405.074 535.412 376.931 528.74C383.509 536.479 388.446 546.376 389.302 556.695C389.748 562.101 387.637 571.013 388.317 574.73C388.575 576.149 391.084 579.175 392.152 580.429C408.862 600.2 448.778 595.158 460.305 571.682C453.867 555.312 453.903 537.722 462.369 522.091Z" fill="black"/>
<path d="M577.663 690.517C589.894 678.697 600.506 661.494 595.3 644.022C587.232 616.969 564.506 582.071 538.65 569.676C535.894 568.351 526.161 565.525 524.988 564.353C521.846 561.21 527.463 550.703 514.235 551.606C497.9 552.72 471.27 572.022 467.353 588.298C459.825 619.537 481.976 696.685 517.026 706.171C540.057 712.398 560.812 706.805 577.663 690.528V690.517Z" fill="black"/>
<path d="M272.824 645.757C270.115 651.257 266.328 666.173 267.254 672.118C274.454 718.355 339.723 735.675 369.32 700.05C386.863 678.943 388.493 665.352 387.414 638.334C386.382 612.466 382.36 587.653 358.239 573.534C350.089 568.762 333.93 563.496 324.936 567.331C320.984 569.02 320.902 579.996 319.8 581.708C319.53 582.13 313.092 584.897 310.935 586.609C292.794 601.009 282.135 626.854 272.824 645.757Z" fill="black"/>
<path d="M463.296 575.246C461.044 574.719 461.771 575.645 461.197 576.478C456.975 582.61 455.592 585.53 448.779 589.67C429.606 601.314 402.377 599.391 387.379 581.895C387.344 586.68 384.53 593.997 384.835 598.382C385.022 601.15 387.52 605.723 388.2 609.065C389.443 615.198 390.252 621.249 390.663 627.499L463.179 620.663C463.038 607.482 459.543 592.308 466.028 580.277L463.296 575.235V575.246Z" fill="black"/>
<path d="M464.234 624.625L391.214 632.247C390.639 646.659 394.638 663.252 390.17 677.253C388.176 683.491 380.191 694.702 375.946 700.049C375.031 701.21 370.176 705.045 371.232 706.241C412.016 715.528 455.838 712.526 494.629 696.742L480.229 674.615C472.102 659.018 467.634 641.828 464.222 624.637L464.234 624.625Z" fill="black"/>
<path d="M549.661 241.102C554.175 251.843 565.339 261.799 575.036 268.448C584.734 275.097 594.795 279.869 606.756 280.596C615.739 302.466 620.758 325.661 624.545 348.984C629.048 376.67 630.15 404.955 638.464 431.89C652.184 476.38 692.488 515.968 677.384 565.758C668.027 596.611 639.649 626.044 609.5 636.938C637.116 612.324 652.325 576.992 649.358 539.667C648.596 530.157 644.973 519.873 643.765 510.304L640.833 509.741C639.649 510.902 645.242 535.352 645.559 539.656C648.549 579.807 630.315 616.874 598.571 640.714L583.878 609.861C583.925 607.434 587.572 606.414 589.132 604.713C599.943 592.882 606.897 579.068 608.539 562.909C607.003 562.815 606.322 562.569 605.244 563.882C604.012 565.383 600.623 579.349 598.911 583.184C597.281 586.831 584.828 606.461 581.509 605.628L577.264 600.41C591.571 583.055 593.834 556.647 592.438 534.871C592.087 529.313 586.974 502.354 582.928 499.762C581.685 498.965 580.243 499.844 580.055 500.771C579.903 501.533 584.605 512.943 585.274 515.464C589.8 532.713 590.199 559.79 585.074 576.945C584.289 579.584 577.698 594.758 576.291 595.696C574.884 596.634 574.837 596.013 573.864 595.215C571.847 593.573 568.95 588.472 566.793 586.139C555.852 574.354 543.786 565.899 527.967 561.842L525.27 551.98C538.872 539.913 546.166 525.537 546.025 507.033C565.175 498.918 570.205 474.304 570.721 455.319C599.638 439.418 599.463 391.235 568.188 377.808C566.031 368.966 566.629 358.788 564.623 350.04C564.354 348.855 562.993 343.778 561.539 346.452L565.866 396.265C566.183 408.953 566.429 421.618 566.734 434.317C566.992 444.719 568.165 453.83 566.758 464.642C564.834 479.464 559.44 494.708 546.354 503.069C542.355 502.94 545.861 482.22 545.92 479.874C546.788 448.94 544.337 416.54 540.139 385.899C539.928 384.386 538.403 383.226 538.204 381.127C537.676 375.709 544.032 370.174 539.693 365.448L535.905 367.325L531.637 355.962C536.21 356.841 547.913 360.875 551.877 359.609C553.12 359.21 553.73 358.213 553.472 356.912C524.976 353.077 500.644 337.95 484.356 314.474C474.799 300.707 464.527 279.881 458.781 264.109C456.014 256.498 454.477 248.571 451.405 241.102C449.834 240.316 448.778 244.538 448.333 245.593C442.763 258.773 439.28 273.162 433.077 286.342C416.32 321.967 378.631 351.001 338.937 354.988L349.749 343.508C358.11 331.618 367.714 319.094 369.32 304.225C369.32 303.392 367.362 303.592 366.963 303.768C366.248 304.072 359.541 314.556 357.899 316.538C344.543 332.568 325.769 346.756 306.866 355.692C301.999 357.99 291.129 362.915 286.227 363.549C284.292 363.795 285.019 363.478 284.832 362.165C283.73 354.449 292.02 338.267 294.06 329.589C296.042 321.146 298.821 307.895 290.601 302.36L298.88 286.33C288.385 275.319 278.629 260.181 264.909 253.438C274.958 237.818 291.094 226.409 306.995 217.215C346.337 194.454 398.507 182.353 443.713 189.037C446.855 189.506 463.683 192.414 464.14 194.184C454.149 236.552 487.675 242.908 521.423 237.994C524.015 237.619 529.808 235.379 531.227 235.45C533.56 235.567 543.739 245.018 549.649 241.113L549.661 241.102ZM539.658 316.631C543.633 319.751 552.803 326.845 557.646 326.493C565.796 325.895 576.244 306.57 577.921 299.206C583.819 273.267 567.063 251.691 547.327 278.087C536.949 267.146 515.842 268.307 517.413 287.116C518.269 297.318 531.977 310.604 539.658 316.631Z" fill="#936457"/>
<path d="M477.555 311.332C472.946 309.011 452.109 314.499 456.576 321.335C460.763 327.749 478.528 323.962 485.13 322.214C496.423 336.486 511.573 347.848 528.67 354.216L531.731 369.566L526.419 372.087L522.619 369.272C521.998 367.842 528.025 360.701 523.604 357.886C514.469 367.666 508.911 359.387 498.674 358.109C455.017 352.633 448.251 429.511 480.838 440.487C515.349 452.108 529.432 401.203 510.776 378.759C511.573 378.009 518.691 383.567 519.77 384.47C523.944 387.988 538.169 404.205 539.036 408.861C540.959 419.157 541.722 435.773 542.109 446.549C542.284 451.299 542.66 482.995 541.147 484.109C536.679 478.645 529.69 475.209 523.17 479.888C521.623 481.002 520.884 483.663 519.711 483.945C517.061 484.59 513.027 480.966 506.976 483.64C502.602 485.563 502.767 489.48 501.336 490.312C500.539 490.781 494.628 488.577 489.551 492.787C486.385 495.413 485.435 500.561 483.723 502.144C482.327 503.434 480.287 502.977 478.786 503.856C471.656 508.007 467.798 514.903 460.505 518.796C428.808 535.729 385.62 529.373 353.408 517.119C350.769 507.82 341.822 504.255 332.898 506.823C328.841 496.715 318.768 500.256 310.254 499.048C298.071 497.325 295.01 487.158 292.747 476.686C288.912 458.886 288.396 439.56 286.743 421.455L290.437 421.361C289.053 417.222 306.08 395.856 307.628 397.732C299.525 414.736 300.85 439.631 317.185 451.31C338.691 466.66 359.716 445.904 361.722 423.824C365.146 386.252 336.686 362.119 301.272 380.459C299.877 381.187 298.516 383.098 297.473 383.356C295.139 383.919 291.492 380.776 288.654 381.609C287.411 386.745 292.219 388.75 293.392 392.983L284.843 393.945L283.94 367.396C313.585 360.912 341.165 342.185 360.314 318.943C361.733 319.693 360.092 321.229 359.634 322.062C352.317 335.313 342.314 349.396 328.958 356.878L329.439 359.305C333.109 361.639 359.036 355.166 364.383 353.383C384.002 346.852 404.171 331.983 417.774 316.586C434.566 297.589 441.883 274.136 450.033 250.59L460.294 278.757L477.555 311.321V311.332ZM529.761 439.49C528.494 431.645 517.6 435.339 525.269 438.775C526.747 439.431 528.166 439.654 529.761 439.49ZM390.228 446.139C389.607 453.585 398.413 460.445 404.992 462.216C420.013 466.261 433.757 457.385 437.685 442.832L435.328 441.39C431.646 444.955 430.661 450.478 426.498 453.667C419.204 459.249 410.585 460.269 402.213 456.458L390.228 446.139ZM521.224 451.826C523.78 447.605 511.62 440.968 511.761 444.708C512.828 445.881 519.817 453.351 521.224 451.826ZM500.351 449.938C499.237 451.146 503.564 459.871 505.557 459.425C509.333 458.581 504.221 448.86 500.351 449.938ZM298.446 458.78C292.09 464.385 303.137 464.186 304.79 458.018C304.251 455.426 299.607 457.76 298.446 458.78ZM312.377 465.124C308.355 463.424 305.365 473.461 308.12 474.599C309.738 475.267 310.583 471.597 310.911 470.776C311.638 468.947 312.553 467.176 312.377 465.124ZM321.887 468.923C321.254 471.996 317.994 475.584 321.395 478.398C322.567 478.363 327.457 468.36 321.887 468.923Z" fill="#FEE2C8"/>
<mask id="mask0_213_2684" style="mask-type:luminance" maskUnits="userSpaceOnUse" x="283" y="250" width="260" height="280">
<path d="M477.555 311.332C472.946 309.011 452.109 314.499 456.576 321.335C460.763 327.749 478.528 323.962 485.13 322.214C496.423 336.486 511.573 347.848 528.67 354.216L531.731 369.566L526.419 372.087L522.619 369.272C521.998 367.842 528.025 360.701 523.604 357.886C514.469 367.666 508.911 359.387 498.674 358.109C455.017 352.633 448.251 429.511 480.838 440.487C515.349 452.108 529.432 401.203 510.776 378.759C511.573 378.009 518.691 383.567 519.77 384.47C523.944 387.988 538.169 404.205 539.036 408.861C540.959 419.157 541.722 435.773 542.109 446.549C542.284 451.299 542.66 482.995 541.147 484.109C536.679 478.645 529.69 475.209 523.17 479.888C521.623 481.002 520.884 483.663 519.711 483.945C517.061 484.59 513.027 480.966 506.976 483.64C502.602 485.563 502.767 489.48 501.336 490.312C500.539 490.781 494.628 488.577 489.551 492.787C486.385 495.413 485.435 500.561 483.723 502.144C482.327 503.434 480.287 502.977 478.786 503.856C471.656 508.007 467.798 514.903 460.505 518.796C428.808 535.729 385.62 529.373 353.408 517.119C350.769 507.82 341.822 504.255 332.898 506.823C328.841 496.715 318.768 500.256 310.254 499.048C298.071 497.325 295.01 487.158 292.747 476.686C288.912 458.886 288.396 439.56 286.743 421.455L290.437 421.361C289.053 417.222 306.08 395.856 307.628 397.732C299.525 414.736 300.85 439.631 317.185 451.31C338.691 466.66 359.716 445.904 361.722 423.824C365.146 386.252 336.686 362.119 301.272 380.459C299.877 381.187 298.516 383.098 297.473 383.356C295.139 383.919 291.492 380.776 288.654 381.609C287.411 386.745 292.219 388.75 293.392 392.983L284.843 393.945L283.94 367.396C313.585 360.912 341.165 342.185 360.314 318.943C361.733 319.693 360.092 321.229 359.634 322.062C352.317 335.313 342.314 349.396 328.958 356.878L329.439 359.305C333.109 361.639 359.036 355.166 364.383 353.383C384.002 346.852 404.171 331.983 417.774 316.586C434.566 297.589 441.883 274.136 450.033 250.59L460.294 278.757L477.555 311.321V311.332ZM529.761 439.49C528.494 431.645 517.6 435.339 525.269 438.775C526.747 439.431 528.166 439.654 529.761 439.49ZM390.228 446.139C389.607 453.585 398.413 460.445 404.992 462.216C420.013 466.261 433.757 457.385 437.685 442.832L435.328 441.39C431.646 444.955 430.661 450.478 426.498 453.667C419.204 459.249 410.585 460.269 402.213 456.458L390.228 446.139ZM521.224 451.826C523.78 447.605 511.62 440.968 511.761 444.708C512.828 445.881 519.817 453.351 521.224 451.826ZM500.351 449.938C499.237 451.146 503.564 459.871 505.557 459.425C509.333 458.581 504.221 448.86 500.351 449.938ZM298.446 458.78C292.09 464.385 303.137 464.186 304.79 458.018C304.251 455.426 299.607 457.76 298.446 458.78ZM312.377 465.124C308.355 463.424 305.365 473.461 308.12 474.599C309.738 475.267 310.583 471.597 310.911 470.776C311.638 468.947 312.553 467.176 312.377 465.124ZM321.887 468.923C321.254 471.996 317.994 475.584 321.395 478.398C322.567 478.363 327.457 468.36 321.887 468.923Z" fill="white"/>
</mask>
<g mask="url(#mask0_213_2684)">
<path d="M507.563 481.903C525.152 481.903 539.412 472.028 539.412 459.846C539.412 447.665 525.152 437.789 507.563 437.789C489.973 437.789 475.714 447.665 475.714 459.846C475.714 472.028 489.973 481.903 507.563 481.903Z" fill="#F9B8A4"/>
<path d="M326.414 497.008C344.004 497.008 358.263 487.133 358.263 474.951C358.263 462.769 344.004 452.893 326.414 452.893C308.825 452.893 294.565 462.769 294.565 474.951C294.565 487.133 308.825 497.008 326.414 497.008Z" fill="#F9B8A4"/>
<path d="M499.073 441.882C517.129 441.882 531.766 427.244 531.766 409.189C531.766 391.133 517.129 376.496 499.073 376.496C481.017 376.496 466.379 391.133 466.379 409.189C466.379 427.244 481.017 441.882 499.073 441.882Z" fill="white"/>
<path d="M322.192 453.128C340.248 453.128 354.885 438.49 354.885 420.435C354.885 402.378 340.248 387.742 322.192 387.742C304.137 387.742 289.499 402.378 289.499 420.435C289.499 438.49 304.137 453.128 322.192 453.128Z" fill="white"/>
</g>
<path d="M498.439 150.902C488.179 151.782 480.709 160.459 474.271 167.659C463.26 165.068 452.132 161.984 440.886 160.518C368.933 151.172 276.119 187.137 246.158 256.967C239.193 273.209 240.717 279.752 238.278 295.606C237.609 299.921 233.787 302.994 236.003 308.446C242.605 314.943 259.878 339.627 268.321 340.729C273.07 341.351 278.441 334.772 281.537 331.278C284.351 328.1 286.45 324.218 289.405 321.111C290.331 320.138 290.355 318.425 292.442 318.941C290.507 334.549 281.325 348.492 280.223 364.147C279.578 373.422 281.572 383.636 281.994 392.97L274.407 391.082C273.621 397.801 278.933 402.457 281.794 407.886C282.58 421.688 283.319 435.607 284.961 449.339C286.872 465.334 287.88 489.185 301.483 499.27L301.894 500.654C294.412 507.115 291.129 517.129 291.469 526.815C270.092 515.851 265.612 490.018 262.188 468.3C257.568 439.031 255.985 409.188 253.51 379.684L250.614 380.095L249.676 382.076L251.658 404.673C223.116 419.988 228.498 464.161 254.507 479.781C256.407 480.918 259.901 481.211 260.652 482.184C261.566 483.369 265.225 500.102 267.008 504.3C271.452 514.76 279.778 526.979 291.351 529.794C292.876 546.633 304.251 561.244 319.952 567.142L315.953 578.81C298.223 587.042 289.51 606.039 279.625 621.728C259.116 611.491 252.83 584.556 254.425 563.319C254.965 556.072 258.166 548.931 257.802 541.977C254.871 537.533 252.373 550.643 252.045 552.39C247.061 578.528 252.666 611.597 278.112 625.035L270.654 640.291C267.054 642.754 255.023 635.026 251.705 632.564C226.27 613.708 225.778 578.892 229.94 550.221C230.644 545.39 234.983 529.242 234.572 526.358C234.244 524.048 232.895 523.684 230.738 523.966C221.662 562.944 214.872 618.691 257.322 640.256C213.312 640.667 194.245 599.812 196.52 560.482C197.857 537.427 207.602 516.273 212.82 494.192C218.284 471.068 220.841 442.033 222.224 418.17C227.255 331.864 207.907 256.041 279.59 191.71C332.652 144.089 423.109 126.5 491.028 147.396C493.397 148.123 497.255 148.627 498.416 150.914L498.439 150.902Z" fill="#936457"/>
<path d="M577.663 690.517C560.812 706.793 540.057 712.398 517.026 706.16C481.988 696.673 459.825 619.525 467.353 588.286C471.281 572.01 497.9 552.72 514.235 551.594C527.463 550.691 521.846 561.198 524.988 564.341C526.161 565.514 535.894 568.34 538.65 569.665C564.506 582.071 587.232 616.969 595.3 644.01C600.506 661.482 589.894 678.685 577.663 690.505V690.517ZM528.811 583.783C519.43 583.256 509.263 587.723 501.923 593.434C499.519 595.299 488.191 606.403 490.853 609.405C492.67 609.804 493.128 608.479 494.078 607.424C504.268 596.201 511.526 588.755 527.861 587.102L528.811 583.783Z" fill="#FFFCEF"/>
<path d="M272.824 645.757C282.146 626.842 292.806 600.997 310.935 586.609C313.081 584.897 319.518 582.13 319.8 581.708C320.902 579.996 320.984 569.008 324.936 567.331C333.93 563.496 350.089 568.762 358.239 573.534C382.36 587.653 386.382 612.466 387.414 638.334C388.493 665.352 386.863 678.943 369.32 700.05C339.723 735.675 274.454 718.355 267.254 672.118C266.328 666.173 270.115 651.257 272.824 645.757ZM315.238 601.818H329.005C337.999 601.818 346.489 611.446 353.478 614.366C354.85 614.94 358.427 616.347 357.969 613.674C357.254 609.405 338.152 599.332 333.32 598.453C328.911 597.644 316.505 596.377 315.238 601.818Z" fill="#FFFCEF"/>
<path d="M549.708 197.422C543.903 196.988 538.908 200.166 534.956 204.048L533.596 204.071C533.889 200.858 521.74 193.107 520.298 194.584C519.325 199.498 532.681 203.778 532.247 207.941L528.858 215.07L514.2 215.387L513.637 218.319L526.994 219.679L530.723 232.543C513.063 236.635 473.521 240.376 467.541 217.416C461.924 195.827 477.332 152.405 504.608 154.726C527.474 156.661 540.409 179.223 549.708 197.422Z" fill="#FEC79A"/>
<path d="M467.13 577.133C461.666 566.732 458.488 556.331 459.485 544.346C460.434 533.018 468.221 515.055 478.188 508.945C481.061 507.186 485.283 507.138 486.666 506.036C488.378 504.676 488.331 498.861 492.025 496.117C497.748 491.872 499.601 495.67 504.901 494.368C505.018 484.542 514.868 486.161 521.611 488.788C524.402 480.99 534.006 478.831 537.829 486.945C542.718 497.323 543.41 515.054 539.693 525.854C537.922 531.001 528.049 546.41 523.135 548.11C521.963 548.521 513.801 547.512 510.53 547.946C497.959 549.658 481.061 561.619 472.806 570.977C471.727 572.208 468.819 578.4 467.107 577.121L467.13 577.133Z" fill="#FEE2C8"/>
<path d="M314.277 504.054L312.389 507.83C317.748 506.962 322.919 500.538 328.055 505.931L328.524 511.641C334.598 511.501 338.257 507.912 344.589 511.231C349.233 513.67 349.198 519.944 350.3 520.718C351.59 521.609 354.522 520.835 356.327 521.339C363.469 523.344 371.806 528.645 376.391 534.496C390.264 552.215 383.826 571.223 381.68 591.369L368.406 575.703C356.515 566.286 344.261 562.1 328.993 562.897C326.402 563.038 324.197 564.892 321.864 564.388C309.762 561.796 296.417 543.08 295.303 531.095C294.295 520.119 299.091 498.261 314.277 504.054Z" fill="#FEE2C8"/>
<path d="M563.322 254.049C561.833 252.513 553.366 241.924 553.565 240.74L562.653 232.695C565.034 232.238 574.661 242.252 574.345 233.551L564.881 229.705C564.799 228.966 564.905 228.263 565.069 227.536C567.79 215.27 569.572 220.523 577.698 217.369C586.282 214.039 570.006 211.951 566.793 215.469C568.177 211.459 562.36 204.622 562.137 202.5C561.915 200.377 567.743 198.56 569.654 197.927C582.588 193.658 611.576 192.826 620.898 204.552C630.221 216.278 624.932 245.055 620.218 258.927C617.885 265.822 612.209 275.11 604.2 276.188C593.048 277.689 570.909 261.906 563.322 254.061V254.049Z" fill="#FEC79A"/>
<path d="M462.369 522.091C453.903 537.722 453.879 555.312 460.305 571.682C448.767 595.158 408.862 600.2 392.152 580.429C391.084 579.175 388.575 576.138 388.317 574.73C387.637 571.025 389.748 562.101 389.302 556.695C388.446 546.376 383.497 536.479 376.931 528.74C405.062 535.424 435.973 534.65 462.369 522.091Z" fill="#FEE2C8"/>
<mask id="mask1_213_2684" style="mask-type:luminance" maskUnits="userSpaceOnUse" x="376" y="522" width="87" height="71">
<path d="M462.369 522.091C453.903 537.722 453.879 555.312 460.305 571.682C448.767 595.158 408.862 600.2 392.152 580.429C391.084 579.175 388.575 576.138 388.317 574.73C387.637 571.025 389.748 562.101 389.302 556.695C388.446 546.376 383.497 536.479 376.931 528.74C405.062 535.424 435.973 534.65 462.369 522.091Z" fill="white"/>
</mask>
<g mask="url(#mask1_213_2684)">
<path d="M419.263 557.387C449.002 557.387 473.11 545.233 473.11 530.24C473.11 515.247 449.002 503.094 419.263 503.094C389.523 503.094 365.415 515.247 365.415 530.24C365.415 545.233 389.523 557.387 419.263 557.387Z" fill="#EDCFB8"/>
</g>
<path d="M471.856 171.812L464.668 188.78C406.716 173.805 339.336 188.628 290.812 222.857C277.268 232.414 266.035 243.53 257.298 257.696L242.136 284.76C249.43 234.431 294.799 198.243 338.609 178.578C380.578 159.745 427.917 159.663 471.844 171.812H471.856Z" fill="#FEC79A"/>
<path d="M464.234 624.626C467.646 641.817 472.102 659.008 480.24 674.604L494.64 696.732C455.849 712.515 412.016 715.529 371.244 706.23C370.188 705.034 375.043 701.2 375.958 700.039C380.202 694.691 388.188 683.481 390.182 677.243C394.649 663.253 390.651 646.648 391.225 632.237L464.245 624.615L464.234 624.626ZM427.014 647.633C415.475 649.31 400.419 663.077 394.251 672.704C395.494 679.717 405.191 702.091 411.348 704.577C415.675 706.324 426.334 704.882 431.4 704.237C438.295 703.345 463.671 698.432 468.021 694.34C472.008 690.587 474.823 667.041 471.903 662.057C469.264 657.566 454.079 651.503 448.849 649.99C441.438 647.844 434.859 646.496 427.014 647.633Z" fill="#15656B"/>
<path d="M463.296 575.246L466.028 580.289C459.555 592.32 463.05 607.494 463.179 620.674L390.663 627.511C390.252 621.261 389.431 615.21 388.2 609.077C387.52 605.723 385.034 601.15 384.835 598.394C384.53 593.997 387.344 586.691 387.379 581.907C402.377 599.403 429.606 601.337 448.779 589.681C455.58 585.542 456.975 582.622 461.197 576.489C461.771 575.657 461.044 574.73 463.296 575.258V575.246Z" fill="#FFFCEF"/>
<path d="M249.747 278.123C251.072 277.818 251.306 278.322 252.127 279.049C255.668 282.169 259.151 288.337 263.009 291.902C266.562 295.185 273.34 299.864 277.714 301.869C282.78 304.191 293.697 304.754 291.012 312.247C289.745 315.8 272.156 337.529 269.013 337.799C266.855 336.802 264.193 334.855 262.493 333.225C257.298 328.23 249.02 318.943 244.481 313.267C242.382 310.64 240.342 307.885 238.56 305.035L249.723 278.135L249.747 278.123ZM264.92 308.494C263.162 306.419 258.928 316.081 258.694 316.984C257.838 320.268 260.652 320.209 262.141 318.251C263.173 316.902 265.976 309.737 264.92 308.483V308.494Z" fill="#15656B"/>
<path d="M252.573 409.119L260.171 478.41C238.313 469.322 231.301 442.07 240.377 421.126C242.687 415.803 246.323 410.08 252.573 409.13V409.119Z" fill="#FEE2C8"/>
<path d="M287.588 300.779C284.351 302.842 270.291 292.992 267.324 290.424C264.369 287.868 254.378 277.173 253.288 274.007C252.561 271.897 261.109 258.681 263.033 257.649C265.612 256.254 270.514 260.78 272.425 262.551C279.801 269.422 286.403 278.792 293.662 285.98C295.691 290.706 288.514 295.983 287.599 300.779H287.588ZM271.558 272.424C269.646 272.119 268.767 273.585 268.005 275.028C263.912 282.708 273.281 279.401 271.558 272.424Z" fill="#FBC8BE"/>
<path d="M545.65 201.443C560.144 198.441 567.25 214.588 561.786 226.127C552.569 245.593 526.642 238.323 532.669 215.996C534.135 210.566 539.916 202.639 545.65 201.443Z" fill="#F8AAA0"/>
<path d="M570.592 449.925L569.173 382.522C586.939 391.164 591.512 414.394 585.285 431.878C582.881 438.633 577.827 447.662 570.592 449.925Z" fill="#FEE2C8"/>
<path d="M564.834 196.39C559.816 199.533 558.584 199.591 554.07 195.44L540.221 171.8C543.797 173.922 566.84 193.529 564.834 196.39Z" fill="#936457"/>
<path d="M539.658 316.631C531.977 310.604 518.269 297.33 517.413 287.116C515.841 268.307 536.949 267.146 547.327 278.087C567.062 251.691 583.807 273.267 577.921 299.206C576.244 306.57 565.796 325.895 557.646 326.493C552.803 326.845 543.633 319.751 539.658 316.631ZM534.85 307.215C538.356 310.721 552.615 322.506 556.919 322.753C560.718 322.964 568.575 311.296 570.416 307.848C575.376 298.538 577.206 286.882 573.23 276.926C567.754 263.23 552.451 273.49 549.707 283.821C548.652 284.56 542.812 278.474 540.525 277.348C533.149 273.725 521.74 274.205 521.294 284.431C520.978 291.795 529.843 302.196 534.85 307.215Z" fill="black"/>
<path d="M390.229 446.139L402.213 456.458C410.586 460.269 419.204 459.249 426.498 453.667C430.661 450.478 431.646 444.966 435.328 441.39L437.685 442.832C433.757 457.373 420.014 466.25 404.992 462.216C398.414 460.445 389.595 453.585 390.229 446.139Z" fill="black"/>
<path d="M521.224 451.825C519.817 453.349 512.816 445.88 511.761 444.707C511.632 440.966 523.78 447.603 521.224 451.825Z" fill="black"/>
<path d="M500.352 449.938C504.21 448.848 509.335 458.569 505.559 459.425C503.577 459.87 499.25 451.158 500.352 449.938Z" fill="black"/>
<path d="M312.377 465.124C312.553 467.176 311.638 468.947 310.911 470.776C310.583 471.597 309.739 475.267 308.121 474.599C305.365 473.45 308.355 463.424 312.377 465.124Z" fill="black"/>
<path d="M298.446 458.78C299.607 457.76 304.239 455.414 304.79 458.018C303.137 464.186 292.091 464.385 298.446 458.78Z" fill="black"/>
<path d="M321.887 468.923C327.457 468.36 322.567 478.363 321.395 478.398C317.994 475.584 321.242 472.007 321.887 468.923Z" fill="black"/>
<path d="M529.761 439.489C528.154 439.653 526.747 439.43 525.269 438.774C517.612 435.338 528.506 431.656 529.761 439.489Z" fill="black"/>
<path d="M528.811 583.782L527.861 587.101C511.526 588.754 504.268 596.188 494.077 607.422C493.116 608.478 492.67 609.803 490.853 609.404C488.203 606.402 499.53 595.309 501.922 593.433C509.263 587.722 519.43 583.254 528.811 583.782Z" fill="black"/>
<path d="M315.238 601.817C316.493 596.376 328.911 597.643 333.32 598.452C338.152 599.331 357.254 609.404 357.969 613.673C358.415 616.346 354.85 614.939 353.478 614.364C346.489 611.445 337.999 601.817 329.005 601.817H315.238Z" fill="black"/>
<path d="M427.015 647.633C434.86 646.496 441.439 647.833 448.85 649.99C454.08 651.515 469.266 657.566 471.904 662.057C474.824 667.041 472.01 690.587 468.023 694.34C463.672 698.432 438.296 703.346 431.401 704.237C426.335 704.893 415.676 706.336 411.349 704.577C405.193 702.091 395.507 679.717 394.252 672.704C400.408 663.077 415.477 649.322 427.015 647.633ZM435.799 651.175L428.153 651.62L428.188 657.824C425.491 658.117 424.881 655.115 424.33 653.145L416.884 656.393L418.69 661.623C416.274 662.596 414.82 657.671 414.433 657.835L411.103 659.747L412.991 664.473L407.901 662.655C402.73 665.012 408.781 668.471 405.885 671.098C404.63 671.215 402.097 664.93 399.259 671.145C396.304 677.594 408.417 692.827 410.305 699.452C418.514 699.863 426.922 699.628 435.048 698.397C441.814 697.377 456.672 693.742 462.629 690.845C464.305 690.036 465.455 689.942 466.404 687.972C467.155 686.413 469.078 677.266 469.09 675.39C469.09 673.643 467.812 664.308 467.167 663.241C467.038 663.018 464 660.685 463.789 660.697C463.027 660.732 462.406 665 459.533 663.523L460.483 658.797C454.877 655.842 456.32 661.072 451.934 660.673L452.884 655.947L447.197 655.009L447.173 657.835H444.335L444.195 653.227L438.636 652.136C438.777 654.318 438.73 657.179 435.787 656.886V651.187L435.799 651.175Z" fill="black"/>
<path d="M264.922 308.493C265.977 309.736 263.174 316.913 262.142 318.261C260.653 320.208 257.839 320.267 258.695 316.995C258.929 316.08 263.174 306.418 264.922 308.505V308.493Z" fill="black"/>
<path d="M271.558 272.424C273.282 279.401 263.9 282.708 268.005 275.027C268.767 273.585 269.658 272.119 271.558 272.424Z" fill="black"/>
<path d="M534.85 307.216C529.831 302.197 520.966 291.796 521.295 284.432C521.74 274.195 533.138 273.714 540.526 277.349C542.812 278.475 548.64 284.561 549.708 283.822C552.452 273.491 567.766 263.231 573.231 276.927C577.206 286.883 575.377 298.55 570.416 307.849C568.575 311.297 560.719 322.965 556.919 322.754C552.616 322.519 538.356 310.734 534.85 307.216Z" fill="#FEC79A"/>
<path d="M435.797 651.174V656.873C438.741 657.166 438.788 654.304 438.647 652.123L444.205 653.214L444.346 657.834H447.184L447.207 654.996L452.894 655.934L451.945 660.66C456.33 661.059 454.888 655.829 460.493 658.784L459.543 663.51C462.416 664.987 463.049 660.719 463.8 660.684C464.011 660.684 467.048 663.006 467.177 663.228C467.822 664.307 469.1 673.63 469.1 675.377C469.1 677.253 467.165 686.4 466.415 687.959C465.465 689.929 464.316 690.023 462.639 690.832C456.682 693.717 441.836 697.352 435.059 698.384C426.932 699.615 418.513 699.85 410.316 699.439C408.428 692.814 396.315 677.593 399.27 671.132C402.107 664.929 404.64 671.214 405.895 671.085C408.803 668.458 402.741 664.999 407.912 662.642L413.001 664.46L411.113 659.734L414.444 657.822C414.831 657.658 416.285 662.583 418.7 661.61L416.894 656.38L424.341 653.132C424.904 655.114 425.502 658.116 428.199 657.811L428.163 651.607L435.809 651.162L435.797 651.174Z" fill="#1D8D95"/>
<path d="M320.023 318.087C325.182 317.395 331.667 317.958 336.405 320.209C343.757 323.704 339.711 330.376 333.098 331.15C328.747 331.666 309.41 331.385 308.038 326.671C307.124 321.018 315.696 318.673 320.023 318.087Z" fill="black"/>
<path d="M324.15 311.988C330.815 311.988 336.217 307.851 336.217 302.747C336.217 297.644 330.815 293.507 324.15 293.507C317.486 293.507 312.084 297.644 312.084 302.747C312.084 307.851 317.486 311.988 324.15 311.988Z" fill="#B27C6D"/>
<path d="M345.399 304.285C348.48 304.285 350.98 301.786 350.98 298.703C350.98 295.62 348.48 293.121 345.399 293.121C342.316 293.121 339.817 295.62 339.817 298.703C339.817 301.786 342.316 304.285 345.399 304.285Z" fill="#B27C6D"/>
<path d="M306.502 315.929C309.585 315.929 312.084 313.43 312.084 310.347C312.084 307.264 309.585 304.766 306.502 304.766C303.419 304.766 300.92 307.264 300.92 310.347C300.92 313.43 303.419 315.929 306.502 315.929Z" fill="#B27C6D"/>
<path d="M393.852 292.23C400.516 292.23 405.919 288.093 405.919 282.99C405.919 277.886 400.516 273.749 393.852 273.749C387.188 273.749 381.786 277.886 381.786 282.99C381.786 288.093 387.188 292.23 393.852 292.23Z" fill="#B27C6D"/>
<path d="M413.599 283.293C415.827 283.293 417.633 281.487 417.633 279.259C417.633 277.032 415.827 275.225 413.599 275.225C411.371 275.225 409.565 277.032 409.565 279.259C409.565 281.487 411.371 283.293 413.599 283.293Z" fill="#B27C6D"/>
<path d="M377.177 295.971C379.807 295.971 381.938 293.839 381.938 291.21C381.938 288.58 379.807 286.449 377.177 286.449C374.548 286.449 372.416 288.58 372.416 291.21C372.416 293.839 374.548 295.971 377.177 295.971Z" fill="#B27C6D"/>
<path d="M504.587 278.887C506.774 274.276 503.666 268.223 497.646 265.366C491.624 262.509 484.971 263.932 482.783 268.543C480.596 273.154 483.703 279.207 489.725 282.063C495.745 284.92 502.4 283.497 504.587 278.887Z" fill="#B27C6D"/>
<path d="M474.518 278.626C477.601 278.626 480.1 276.127 480.1 273.044C480.1 269.962 477.601 267.463 474.518 267.463C471.435 267.463 468.936 269.962 468.936 273.044C468.936 276.127 471.435 278.626 474.518 278.626Z" fill="#B27C6D"/>
<path d="M797.603 174.954C796.02 166.335 792.854 159.206 782.676 160.836C770.867 162.735 760.102 183.972 747.086 185.403C721.182 239.32 699.36 295.666 676.27 351.049C672.295 364.863 694.106 373.318 704.308 376.941C727.093 385.033 728.793 376.613 737.752 357.581C749.607 332.393 759.117 305.786 770.093 280.175C774.01 271.029 802.575 211.693 801.719 207.835C799.175 196.343 799.632 186.001 797.603 174.954ZM763.96 178.554C770.07 176.373 773.893 167.989 780.072 165.644C797.908 158.889 793.405 185.555 795.598 195.417C794.085 195.733 793.007 195.077 791.682 194.596C787.061 192.919 770.304 184.582 766.376 181.908C765.027 180.993 763.48 180.747 763.949 178.554H763.96ZM755.517 184.887C755.693 184.675 759.856 182.694 760.782 183.163L795.457 199.779C796.079 200.647 796.102 203.602 794.05 202.781C783.262 195.241 768.111 192.755 756.995 187.068C756.139 186.634 753.864 186.81 755.506 184.887H755.517ZM700.65 372.157C692.805 369.085 676.048 362.225 680.633 351.624L725.955 370.597C722.754 381.925 708.307 375.147 700.65 372.145V372.157ZM729.109 368.487L682.825 348.305C681.313 345.913 686.683 337.81 686.93 334.715L733.964 355.775L729.109 368.487ZM742.337 336.802C734.269 333.003 726.014 335.969 717.266 334.433C712.048 333.519 704.754 330.821 699.911 328.582C696.498 326.999 688.935 324.255 692.711 321.006C699.442 325.615 708.213 329.508 716.246 331.244C725.545 333.261 733.882 331.654 742.841 334.726L742.337 336.802ZM747.004 327.292L698.597 307.181L729.098 235.978L776.613 255.585L747.004 327.292ZM779.345 242.815C767.654 240.845 745.034 228.145 738.983 217.744C738.139 216.29 737.177 215.27 737.576 213.358L749.162 225.507C758.953 233.457 770.539 239.262 782.934 241.865C783.227 243.671 780.401 243.003 779.345 242.827V242.815ZM788.68 228.192L740.742 206.545C741.774 204.106 743.709 197.61 746.476 197.539L794.566 215.469L788.691 228.192H788.68ZM795.27 213.206C789.723 211.646 780.788 205.818 774.491 203.356C765.215 199.732 755.459 197.07 746.054 193.869L748.177 188.076C765.473 192.251 781.62 200.518 797.603 208.246C797.779 209.711 797.451 213.827 795.27 213.217V213.206Z" fill="black"/>
<path d="M698.599 307.181L747.005 327.292L776.614 255.573L729.099 235.967L698.599 307.181Z" fill="#A375D7"/>
<path d="M682.825 348.306L729.109 368.487L733.964 355.775L686.929 334.715C686.671 337.81 681.313 345.913 682.825 348.306Z" fill="#A375D7"/>
<path d="M740.73 206.557L788.668 228.204L794.543 215.481L746.453 197.551C743.686 197.622 741.751 204.118 740.719 206.557H740.73Z" fill="#A375D7"/>
<path d="M766.389 181.908C770.317 184.582 787.061 192.919 791.693 194.596C793.018 195.077 794.098 195.734 795.611 195.417C793.418 185.555 797.921 158.889 780.085 165.644C773.905 167.989 770.07 176.373 763.972 178.555C763.515 180.736 765.051 180.994 766.399 181.908H766.389Z" fill="#632E9E"/>
<path d="M700.65 372.157C708.307 375.159 722.755 381.937 725.956 370.609L680.634 351.636C676.049 362.237 692.805 369.097 700.65 372.169V372.157Z" fill="#632E9E"/>
<path d="M797.593 208.233C781.61 200.505 765.462 192.238 748.166 188.063L746.043 193.856C755.448 197.058 765.216 199.719 774.48 203.343C780.777 205.805 789.712 211.645 795.259 213.193C797.44 213.803 797.769 209.699 797.593 208.221V208.233Z" fill="#632E9E"/>
<path d="M757.008 187.068C768.124 192.743 783.275 195.241 794.063 202.781C796.115 203.602 796.08 200.647 795.47 199.779L760.795 183.163C759.869 182.694 755.706 184.676 755.53 184.887C753.889 186.81 756.152 186.634 757.02 187.068H757.008Z" fill="#A375D7"/>
<path d="M692.711 321.005C688.935 324.254 696.498 326.998 699.911 328.581C704.754 330.832 712.059 333.529 717.266 334.432C726.014 335.968 734.269 333.001 742.337 336.801L742.841 334.725C733.882 331.641 725.545 333.248 716.246 331.242C708.225 329.507 699.453 325.614 692.711 321.005Z" fill="#7C72B5"/>
<path d="M737.576 213.358C737.177 215.27 738.139 216.29 738.983 217.744C745.034 228.145 767.642 240.857 779.345 242.815C780.412 242.991 783.227 243.659 782.934 241.854C770.539 239.25 758.953 233.446 749.162 225.495L737.576 213.347V213.358Z" fill="#A375D7"/>
<path d="M171.438 290.811C159.524 256.629 148.571 222.118 137.314 187.713C146.578 160.625 152.253 137.055 125.4 118.422C102.44 102.485 81.7658 111.937 60.7638 99.6828C58.2896 98.2405 57.2342 94.9219 53.7397 95.6372C55.0766 102.614 58.3951 109.005 58.9932 116.229C60.201 130.711 54.3378 144.923 55.956 159.37C58.2075 179.422 76.3834 197.563 95.8144 201.292C112.9 256.57 138.369 308.964 165.762 359.809C170.723 368.276 190.81 361.768 191.936 353.571C193.472 342.454 175.929 303.722 171.438 290.823V290.811ZM59.0166 103.025C59.7906 102.403 67.1078 106.625 68.9958 107.281C78.1072 110.389 86.5271 110.354 95.9551 111.468C96.9518 119.641 86.5271 117.507 82.786 122.033C81.0622 124.132 81.6368 127.709 80.5463 128.459C79.186 129.397 75.6564 129.151 73.7801 129.925C69.1951 131.813 66.0994 136.093 61.1274 135.718C62.8394 124.977 63.3085 113.274 59.0166 103.025ZM69.6055 181.603C59.5795 170.217 57.199 154.375 60.5293 139.881C66.756 139.259 70.5319 135.096 75.8792 133.068C78.1189 132.224 80.7104 133.103 82.8564 131.602C84.9323 130.148 84.944 126.032 86.9375 124.074C90.7486 120.321 101.619 121.611 100.2 111.468C115.362 114.61 134.969 125.469 139.566 141.206C144.561 158.326 137.971 171.108 133.714 187.209C132.717 188.651 103.39 199.017 100.681 199.111C90.772 199.451 75.9612 188.827 69.6173 181.615L69.6055 181.603ZM100.212 203.895L134.992 191.653L147.668 231.745L113.99 242.229L100.212 203.907V203.895ZM169.022 359.176C150.459 322.191 130.583 285.839 116.124 246.919L148.196 234.935C155.091 252.396 160.274 270.56 166.63 288.231C172.212 303.757 187.562 336.028 188.723 350.616C189.414 359.293 175.659 362.342 169.022 359.176Z" fill="black"/>
<path d="M133.701 187.197C137.958 171.108 144.548 158.315 139.552 141.194C134.956 125.446 115.337 114.599 100.187 111.456C101.618 121.6 90.7355 120.31 86.9245 124.062C84.931 126.02 84.931 130.136 82.8441 131.59C80.6982 133.091 78.1067 132.212 75.8669 133.056C70.5197 135.085 66.7438 139.248 60.5171 139.869C57.1985 154.375 59.5673 170.205 69.5933 181.592C75.9373 188.803 90.7473 199.427 100.656 199.087C103.365 198.994 132.693 188.639 133.689 187.185L133.701 187.197ZM108.653 119.336C125.797 125.375 133.291 151.56 131.872 167.954C131.625 170.768 131.403 177.089 127.615 176.889C127.087 169.947 128.342 162.079 127.615 155.254C125.95 139.564 118.445 132.81 107.633 123.534C104.819 121.119 103.681 117.577 108.665 119.336H108.653ZM93.843 127.287C104.549 130.254 112.183 146.061 115.244 156.005C116.369 159.651 120.661 171.659 114.962 171.601C112.054 158.936 108.337 147.456 100.621 136.867C98.2873 133.678 93.5381 131.649 93.8547 127.287H93.843ZM91.5212 150.177C89.5512 146.811 85.0365 142.32 83.794 139.963C82.8324 138.134 83.6064 137.958 84.8606 136.808C91.2749 140.631 96.0124 148.676 98.9675 155.395C100.551 158.995 104.35 165.268 100.703 168.411C99.4013 168.388 93.1981 153.038 91.5329 150.165L91.5212 150.177Z" fill="#FD8F35"/>
<path d="M148.196 234.935L116.124 246.919C130.583 285.839 150.459 322.191 169.022 359.176C175.671 362.342 189.426 359.293 188.722 350.616C187.549 336.028 172.211 303.757 166.63 288.231C160.274 270.56 155.091 252.395 148.196 234.935Z" fill="#FEAB67"/>
<path d="M134.992 191.653L100.211 203.895L113.99 242.217L147.656 231.745L134.992 191.653Z" fill="#BEB7A5"/>
<path d="M61.1273 135.718C66.0993 136.081 69.2068 131.813 73.7801 129.925C75.6563 129.151 79.1743 129.397 80.5462 128.459C81.6368 127.709 81.0622 124.132 82.786 122.033C86.5153 117.495 96.9518 119.641 95.9551 111.468C86.5388 110.354 78.1072 110.389 68.9958 107.281C67.0961 106.636 59.7905 102.403 59.0166 103.025C63.3085 113.285 62.8394 124.977 61.1273 135.718ZM74.8355 125.176C73.0414 126.864 64.1645 118.785 65.3489 115.689C66.4277 114.493 75.9964 121.975 74.8355 125.176ZM68.5619 108.759C70.4498 109.111 86.9023 113.977 83.2785 117.788C80.2765 116.041 64.4342 112.617 64.3052 109.873C64.2231 108.126 67.2485 108.513 68.5502 108.759H68.5619Z" fill="#D70F8D"/>
<path d="M107.621 123.522C118.445 132.798 125.938 139.552 127.603 155.242C128.33 162.055 127.075 169.936 127.603 176.878C131.391 177.077 131.614 170.756 131.86 167.942C133.279 151.549 125.786 125.364 108.642 119.324C103.658 117.565 104.807 121.107 107.61 123.522H107.621Z" fill="black"/>
<path d="M100.609 136.867C108.337 147.456 112.054 158.936 114.951 171.601C120.65 171.659 116.358 159.651 115.232 156.005C112.183 146.061 104.538 130.254 93.8315 127.287C93.5149 131.649 98.2641 133.678 100.598 136.867H100.609Z" fill="black"/>
<path d="M98.9673 155.407C96.0123 148.687 91.2865 140.631 84.8605 136.82C83.606 137.969 82.8321 138.145 83.7936 139.975C85.0364 142.332 89.551 146.823 91.5211 150.188C93.1979 153.05 99.3895 168.399 100.691 168.435C104.338 165.292 100.539 159.018 98.9556 155.418L98.9673 155.407Z" fill="black"/>
<path d="M83.2782 117.789C86.9021 113.978 70.4495 109.123 68.5615 108.759C67.2482 108.513 64.2345 108.126 64.3166 109.873C64.4338 112.606 80.2762 116.041 83.2899 117.789H83.2782Z" fill="black"/>
<path d="M65.3486 115.689C64.1642 118.785 73.0411 126.864 74.8352 125.175C75.9961 121.974 66.4274 114.493 65.3486 115.689Z" fill="black"/>
<path d="M235.897 669.058L156.545 538.414C150.881 536.268 117.226 524.248 113.931 525.327C112.254 525.878 112.125 528.024 111.645 529.443C109.264 536.514 104.351 559.029 103.999 566.205C103.87 568.727 104.069 570.439 105.465 572.608C128.988 611.657 152.312 650.811 176.386 689.52C179.294 694.199 181.358 702.079 186.26 703.92C194.562 707.039 206.136 704.213 213.852 700.238C222.248 695.899 239.955 679.564 235.909 669.058H235.897ZM111.691 545.321C112.149 544.441 127.053 534.966 128.331 534.486C134.441 532.199 144.701 538.508 151.233 538.965L107.974 565.338L111.68 545.309L111.691 545.321ZM108.08 569.923L155.443 542.131L226.188 659.759L179.024 686.588L108.08 569.923ZM223.444 688.195C215.552 696.11 205.479 701.387 193.976 701.563C185.005 701.704 184.395 697.236 180.772 690.364L227.759 662.631C238.372 672.071 231.254 680.362 223.444 688.195Z" fill="black"/>
<path d="M155.443 542.132L108.08 569.924L179.025 686.59L226.188 659.76L155.443 542.132ZM181.311 677.185L120.639 574.849C122.691 574.52 123.5 575.025 124.896 576.385C127.593 579 135.614 594.209 138.369 598.794C151.562 620.699 170.992 649.499 181.335 671.908C182.296 673.984 184.02 675.356 181.311 677.197V677.185ZM195.559 666.643C193.624 666.96 192.428 665.306 191.349 664.005C188.57 660.686 185.04 653.779 182.461 649.675C166.231 623.877 151.773 596.894 135.356 571.202C132.682 562.149 137.267 566.57 140.48 571.354C156.92 595.851 174.944 627.313 189.414 653.275C190.493 655.198 196.556 665.541 195.559 666.643ZM206.136 655.538C202.935 651.95 198.596 644.011 195.758 639.532C179.318 613.605 164.308 586.692 147.879 560.754C146.507 557.47 149.556 557.001 152.148 559.675C154.622 562.219 159.793 572.105 162.221 575.986C176.586 598.958 191.947 623.443 205.233 646.943C206.23 648.702 211.401 656.992 210.322 658.2C208.294 658.552 207.285 656.84 206.136 655.538Z" fill="#FFEA1A"/>
<path d="M227.76 662.631L180.772 690.364C184.395 697.236 185.005 701.692 193.976 701.563C205.479 701.387 215.541 696.123 223.444 688.196C231.254 680.363 238.372 672.071 227.76 662.631Z" fill="#F16669"/>
<path d="M128.332 534.485C127.065 534.966 112.149 544.441 111.692 545.321L107.986 565.349L151.245 538.977C144.702 538.507 134.453 532.21 128.343 534.497L128.332 534.485Z" fill="#F1AEB5"/>
<path d="M205.245 646.941C191.959 623.43 176.597 598.957 162.232 575.985C159.805 572.104 154.645 562.23 152.159 559.674C149.556 557 146.507 557.469 147.891 560.753C164.308 586.703 179.329 613.603 195.77 639.53C198.607 644.01 202.946 651.949 206.148 655.537C207.308 656.827 208.305 658.539 210.334 658.199C211.413 656.991 206.241 648.7 205.245 646.941Z" fill="black"/>
<path d="M140.48 571.353C137.267 566.569 132.682 562.148 135.356 571.201C151.773 596.893 166.231 623.876 182.461 649.674C185.04 653.778 188.558 660.685 191.349 664.003C192.44 665.305 193.624 666.958 195.559 666.642C196.556 665.54 190.493 655.197 189.414 653.274C174.944 627.311 156.921 595.85 140.48 571.353Z" fill="black"/>
<path d="M138.369 598.781C135.614 594.196 127.593 578.987 124.896 576.372C123.489 575.012 122.691 574.508 120.639 574.836L181.311 677.172C184.032 675.343 182.296 673.959 181.335 671.884C170.981 649.486 151.562 620.674 138.369 598.77V598.781Z" fill="black"/>
<path d="M794.12 489.913L739.78 461.758L737.939 461.876L651.914 626.127C651.668 626.983 651.844 627.698 652.231 628.484C653.134 630.349 668.238 637.314 671.427 638.897C679.46 642.896 698.468 653.203 705.891 655.126C707.286 655.49 709.538 655.502 710.582 654.61L794.238 491.743L794.12 489.902V489.913ZM789.911 491.731L708.74 651.714L654.94 627.429C654.764 621.87 662.468 629.012 664.731 629.797C666.76 630.501 667.041 631.216 668.648 629.012C669.375 625.318 656.992 624.544 658.622 620.065C661.436 621.53 676.294 631.334 678.146 629.551C679.213 628.519 677.701 626.455 676.423 625.482C672.705 622.644 664.696 620.041 660.217 617.942L661.8 614.811L672.869 621.12C675.461 618.376 664.426 612.56 662.316 612.665L663.406 609.546C665.118 608.151 675.297 616.652 677.091 614.788C679.882 611.891 667.405 606.544 665.494 606.333L668.109 602.147C668.941 602.358 681.524 611.575 681.289 606.884L669.715 599.977L670.77 595.803C671.544 595.193 685.276 604.633 687.95 605.524C689.943 606.192 690.225 607.013 691.843 604.762L673.292 593.715L674.511 589.423L687.633 595.791C690.565 592.66 677.947 587.653 676.036 587.313L677.091 583.138L689.204 589.482C691.585 582.681 676.704 584.053 680.245 577.861L695.021 583.126C695.501 580.934 693.883 580.734 692.628 579.726C688.337 576.325 679.401 575.962 684.467 570.908L698.198 575.739C701.611 572.795 681.688 567.976 688.208 564.13C689.087 563.966 700.849 571.81 703.792 572.807C705.797 573.487 706.067 574.273 707.685 572.045L689.849 560.448L691.339 557.809C705.269 568.926 710.089 561.843 692.945 555.651L694 551.465C694.681 550.937 704.707 559.404 707.697 557.786C710.019 555.792 698.116 548.956 696.099 549.308L697.765 545.063C700.133 544.664 705.129 549.565 708.049 550.597C709.245 551.02 710.488 551.711 710.863 549.847C711.567 546.294 699.277 543.128 699.277 541.427L701.388 537.734C705.387 540.055 709.034 544.054 714.029 544.066C717.078 540.958 704.836 536.983 703.98 535.658C702.995 534.145 704.39 532.504 705.058 532.48C705.95 532.445 717.09 540.642 720.326 541.474C721.757 541.838 724.63 542.025 724.559 540.372C724.466 538.226 708.225 531.612 705.598 529.83L709.221 526.16C711.379 528.376 713.924 530.205 716.867 531.214C717.852 531.542 719.916 533.348 720.35 530.862C720.748 528.528 712 524.26 709.808 523.979L710.863 519.792C714.217 519.147 722.636 529.408 724.559 524.53C725.181 522.947 721.194 521.387 719.998 520.683C717.817 519.405 715.471 518.186 712.974 517.646L714.041 513.483C716.879 511.466 725.275 522.947 728.769 518.209C725.967 512.616 711.602 512.463 718.755 506.108C719.67 507.01 732.135 515.16 731.935 510.821L720.479 503.844L721.956 499.74C723.129 499.517 734.656 507.644 737.271 508.687C738.924 509.344 741.492 509.133 741.434 507.667C741.375 506.143 726.271 497.946 723.527 497.594L725.099 493.42C727.385 495.483 730.868 497.512 733.741 498.509C734.738 498.849 736.79 500.631 737.224 498.157C737.74 495.237 728.64 493.197 727.116 491.309L727.737 487.099C732.768 488.436 735.524 493.666 741.445 492.364C743.474 490.652 731.677 484.613 729.836 484.977L731.513 480.72C735.137 480.298 739.757 488.811 743.556 484.449C744.142 481.576 735.946 480.239 734.562 477.636C733.729 476.065 734.867 474.493 735.641 474.47C736.145 474.458 742.114 478.785 744.283 479.536C745.28 479.876 747.332 481.658 747.766 479.184C748.223 476.627 738.279 472.91 736.157 472.312L737.224 469.169L754.813 478.539L757.264 475.513C757.041 476.006 747.062 471.925 751.448 471.292C763.796 477.12 775.991 484.906 788.515 490.183C789.524 490.605 790.438 489.573 789.899 491.743L789.911 491.731Z" fill="black"/>
<path d="M788.539 490.17C776.015 484.893 763.831 477.107 751.472 471.279C747.098 471.912 757.077 475.981 757.288 475.501L754.837 478.526L737.247 469.157L736.18 472.299C738.291 472.897 748.235 476.615 747.79 479.171C747.356 481.657 745.303 479.874 744.307 479.523C742.137 478.772 736.157 474.445 735.664 474.457C734.89 474.48 733.741 476.063 734.586 477.623C735.969 480.226 744.166 481.563 743.58 484.436C739.78 488.798 735.16 480.297 731.537 480.707L729.86 484.964C731.701 484.6 743.498 490.639 741.469 492.351C735.547 493.653 732.791 488.423 727.761 487.086L727.139 491.296C728.652 493.184 737.763 495.224 737.247 498.144C736.814 500.63 734.761 498.848 733.765 498.496C730.892 497.511 727.397 495.482 725.122 493.407L723.551 497.581C726.295 497.933 741.399 506.13 741.457 507.654C741.516 509.12 738.948 509.331 737.294 508.674C734.679 507.643 723.152 499.504 721.98 499.727L720.502 503.831L731.959 510.809C732.158 515.147 719.705 506.986 718.778 506.095C711.625 512.45 725.99 512.603 728.793 518.196C725.31 522.922 716.902 511.454 714.064 513.471L712.997 517.633C715.483 518.173 717.84 519.392 720.021 520.671C721.217 521.374 725.216 522.934 724.583 524.517C722.66 529.395 714.24 519.146 710.887 519.779L709.831 523.966C712.024 524.247 720.772 528.516 720.373 530.849C719.939 533.347 717.875 531.541 716.89 531.201C713.947 530.204 711.403 528.363 709.245 526.147L705.621 529.817C708.248 531.6 724.489 538.213 724.583 540.359C724.653 542.013 721.78 541.825 720.35 541.461C717.102 540.641 705.961 532.444 705.082 532.467C704.414 532.491 703.018 534.132 704.003 535.645C704.859 536.97 717.113 540.934 714.053 544.053C709.057 544.053 705.41 540.054 701.412 537.721L699.301 541.415C699.301 543.115 711.59 546.281 710.887 549.834C710.523 551.699 709.268 551.007 708.072 550.585C705.152 549.541 700.157 544.639 697.788 545.05L696.123 549.295C698.14 548.943 710.031 555.779 707.72 557.773C704.73 559.379 694.692 550.925 694.024 551.452L692.969 555.639C710.124 561.83 705.305 568.913 691.362 557.796L689.873 560.435L707.709 572.032C706.09 574.26 705.821 573.474 703.816 572.794C700.872 571.798 689.111 563.953 688.231 564.117C681.711 567.951 701.646 572.783 698.222 575.726L684.49 570.895C679.436 575.949 688.36 576.312 692.652 579.713C693.918 580.71 695.525 580.921 695.044 583.114L680.269 577.848C676.728 584.04 691.608 582.668 689.228 589.469L677.115 583.125L676.059 587.3C677.971 587.64 690.588 592.647 687.657 595.778L674.535 589.411L673.315 593.703L691.866 604.749C690.248 606.989 689.967 606.179 687.973 605.511C685.3 604.62 671.568 595.18 670.794 595.79L669.739 599.964L681.313 606.871C681.547 611.574 668.965 602.345 668.132 602.134L665.517 606.32C667.429 606.519 679.905 611.867 677.115 614.775C675.332 616.639 665.154 608.138 663.43 609.533L662.339 612.652C664.438 612.547 675.485 618.363 672.893 621.107L661.823 614.798L660.24 617.929C664.731 620.028 672.729 622.632 676.446 625.469C677.724 626.443 679.237 628.506 678.17 629.538C676.317 631.321 661.46 621.518 658.646 620.052C657.016 624.531 669.399 625.305 668.672 628.999C667.065 631.204 666.784 630.488 664.755 629.785C662.492 628.999 654.788 621.858 654.963 627.416L708.764 651.701L789.934 491.718C790.474 489.549 789.559 490.581 788.55 490.159L788.539 490.17ZM755.517 499.434C746.066 488.763 764.676 475.266 771.442 487.192C777.223 497.359 763.726 508.71 755.517 499.434Z" fill="#FFF8B3"/>
<path d="M755.517 499.435C763.726 508.711 777.223 497.36 771.442 487.193C764.676 475.279 746.066 488.764 755.517 499.435ZM758.625 497.371C754.38 493.373 757.534 487.334 763.104 486.994C774.925 486.255 766.517 504.818 758.625 497.371Z" fill="black"/>
<path d="M622.979 714.083C624.855 714.052 626.666 714.775 628.004 716.091C629.342 717.407 630.096 719.206 630.096 721.083V730.581C630.096 731.187 630.017 731.781 629.868 732.351C634.258 731.271 638.35 730.43 642.135 729.838L642.151 729.836C646.532 729.163 650.6 728.805 654.328 728.805C661.839 728.805 668.802 730.312 673.901 734.598C673.912 734.607 673.922 734.615 673.933 734.624C673.939 734.629 673.946 734.635 673.952 734.64H673.951C674.398 735.014 674.822 735.402 675.225 735.802C675.992 732.925 678.547 730.765 681.656 730.618L701.697 729.667L702.006 729.66C704.061 729.652 705.96 730.544 707.265 732.013C711.029 729.905 715.11 728.805 719.411 728.805C722.162 728.805 724.966 729.233 727.791 729.997C728.373 730.154 728.92 730.382 729.425 730.668L754.738 729.759C756.18 729.707 757.59 730.102 758.784 730.873C759.19 730.782 759.609 730.726 760.038 730.709L784.544 729.76C786.446 729.687 788.296 730.39 789.668 731.709C791.04 733.029 791.814 734.851 791.814 736.754V746.252C791.814 749.091 790.1 751.65 787.474 752.728L787.117 752.874L773.741 790.396C773.739 790.402 773.737 790.408 773.735 790.414C772.151 794.822 770.308 798.794 768.166 802.265L768.165 802.264C766.075 805.753 763.602 808.801 760.697 811.302L760.696 811.301C757.754 813.89 754.366 815.796 750.605 817.022C746.88 818.237 742.871 818.792 738.652 818.792C735.343 818.791 731.843 818.462 728.172 817.838C724.488 817.213 721.945 813.803 722.396 810.093L724.01 796.795L724.062 796.446C724.362 794.708 725.309 793.142 726.72 792.069C728.224 790.924 730.128 790.436 731.997 790.716C733.092 790.881 734.052 790.982 734.884 791.031C735.005 791.038 735.126 791.049 735.246 791.062C736.199 791.168 736.947 791.209 737.513 791.209C739.169 791.209 739.968 790.92 740.268 790.764L740.468 790.664C740.646 790.578 741.143 790.278 741.82 789.244C741.861 789.181 741.904 789.119 741.947 789.058L730.639 762.195C729.361 763.918 727.314 765.031 725.015 765.031H714.187C713.855 765.031 713.528 765.006 713.208 764.961V771.805L714.916 772.332C717.853 773.235 719.857 775.949 719.857 779.022V788.521C719.857 792.387 716.723 795.521 712.857 795.521H681.987C681.594 795.521 681.209 795.487 680.834 795.424C680.568 795.468 680.296 795.5 680.021 795.513L659.979 796.462C657.7 796.57 655.585 795.568 654.216 793.885C650.424 795.956 646.266 796.946 641.886 796.946C637.539 796.946 633.474 795.953 629.966 793.802C628.737 794.871 627.133 795.521 625.376 795.521H595.171C594.265 795.521 593.4 795.346 592.605 795.033C591.811 795.346 590.947 795.521 590.042 795.521H559.646C555.781 795.521 552.647 792.387 552.646 788.521V779.022C552.647 776.16 554.389 773.586 557.047 772.523L558.346 772.003V738.048L557.162 737.599C554.444 736.567 552.647 733.962 552.646 731.055V721.557C552.646 717.734 555.714 714.618 559.537 714.558L589.933 714.083C591.04 714.066 592.123 714.313 593.101 714.788C593.634 714.647 594.192 714.568 594.768 714.558L622.979 714.083ZM226.564 714.083C232.954 714.083 238.843 715.218 243.731 718.052C248.337 720.624 251.966 724.223 254.292 728.875C254.816 729.924 255.274 730.996 255.667 732.087C259.644 731.134 263.37 730.38 266.838 729.838L266.854 729.836C271.234 729.162 275.303 728.805 279.031 728.805C286.542 728.805 293.505 730.312 298.604 734.598C298.615 734.607 298.626 734.615 298.636 734.624C298.642 734.629 298.649 734.635 298.655 734.64H298.654C298.915 734.858 299.167 735.082 299.413 735.309C300.327 732.681 302.765 730.756 305.694 730.618L325.735 729.667L326.05 729.66C328.013 729.654 329.83 730.47 331.124 731.821C331.225 731.768 331.326 731.714 331.427 731.663C331.446 731.653 331.466 731.643 331.485 731.633C335.26 729.746 339.31 728.805 343.544 728.805C348.541 728.805 353.21 730.134 357.27 732.965H357.271C357.3 732.986 357.33 733.007 357.359 733.027H357.358C360.458 735.162 362.888 737.994 364.742 741.305C367.248 737.965 370.369 735.223 374.084 733.146C379.323 730.152 385.32 728.805 391.805 728.805C397.996 728.805 403.739 729.961 408.486 732.882H408.485C413.015 735.63 416.436 739.471 418.547 744.308C420.505 748.797 421.411 753.697 421.411 758.886C421.411 760.491 421.338 762.118 421.194 763.766C421.194 763.775 421.193 763.785 421.192 763.793C421.038 765.491 420.77 767.202 420.396 768.921C419.926 771.087 418.481 772.832 416.584 773.744L419.476 778.326C421.481 781.503 420.62 785.697 417.525 787.828C413.167 790.829 408.612 793.139 403.865 794.697C403.834 794.707 403.802 794.717 403.771 794.727C399.086 796.191 394.362 796.946 389.62 796.946C383.74 796.946 378.25 795.771 373.352 793.198C373.337 793.19 373.322 793.182 373.308 793.174C369.11 790.93 365.723 787.757 363.179 783.787C360.604 787.611 357.268 790.706 353.179 792.949C353.167 792.955 353.155 792.962 353.144 792.968C349.684 794.84 345.927 796.014 341.941 796.568C342.878 797.771 343.42 799.273 343.42 800.869V810.367C343.42 814.233 340.286 817.367 336.42 817.367H306.025C302.159 817.367 299.025 814.233 299.025 810.367V800.869C299.025 798.855 299.889 796.978 301.334 795.673L284.682 796.462C282.403 796.57 280.287 795.568 278.918 793.885C275.127 795.956 270.968 796.946 266.589 796.946C260.366 796.946 254.718 794.914 250.457 790.356C246.265 785.871 244.486 780.127 244.486 773.893C244.486 771.673 244.726 769.486 245.276 767.397C244.132 768.189 242.92 768.915 241.644 769.573C238.382 771.253 234.715 772.348 230.732 772.962C232.861 774.192 234.229 776.483 234.229 779.022V788.521C234.229 792.387 231.095 795.521 227.229 795.521H194.46C190.594 795.521 187.46 792.387 187.46 788.521V779.022C187.46 776.135 189.233 773.545 191.923 772.499L193.159 772.017V738.036L192.04 737.624C189.288 736.61 187.46 733.988 187.46 731.055V721.557C187.46 717.742 190.516 714.629 194.33 714.558L219.881 714.083L220.011 714.083H226.564ZM756.13 805.998L756.555 805.624C756.604 805.579 756.651 805.533 756.7 805.489C756.511 805.661 756.322 805.832 756.13 805.998ZM756.824 805.375C757.013 805.2 757.201 805.023 757.386 804.84C757.201 805.023 757.013 805.2 756.824 805.375ZM102.048 714.083C103.923 714.055 105.731 714.78 107.066 716.095C108.402 717.411 109.154 719.208 109.154 721.083V730.581C109.154 733.333 107.542 735.83 105.033 736.961L103.171 737.801V762.195C104.319 759.827 106.739 758.25 109.469 758.25H120.866C120.925 758.25 120.984 758.252 121.043 758.253C120.715 757.497 120.513 756.671 120.472 755.801L119.712 739.939C119.553 736.621 121.747 733.649 124.965 732.824C130.071 731.514 134.791 730.513 139.11 729.838C139.116 729.838 139.122 729.837 139.127 729.836C143.508 729.162 147.577 728.805 151.305 728.805C158.816 728.805 165.778 730.313 170.877 734.598H170.878C170.895 734.612 170.912 734.626 170.929 734.64H170.928C176.327 739.152 178.44 745.699 178.44 752.807V772.151L179.508 772.625C182.036 773.749 183.665 776.256 183.665 779.022V788.521C183.665 792.258 180.729 795.336 176.996 795.513L156.955 796.462C154.677 796.57 152.56 795.568 151.191 793.885C147.4 795.956 143.241 796.946 138.861 796.946C134.142 796.946 129.754 795.776 126.051 793.223C124.77 794.634 122.922 795.521 120.866 795.521H71C67.1341 795.521 64.0002 792.387 64 788.521V779.022C64.0001 776.149 65.7558 773.568 68.4277 772.512L69.6992 772.009V738.068L68.4277 737.566C65.7556 736.51 64 733.928 64 731.055V721.557C64 717.733 67.0696 714.616 70.8936 714.558L102.048 714.083ZM483.566 706.963C485.468 706.89 487.318 707.595 488.689 708.915C490.061 710.234 490.836 712.055 490.836 713.958V741.259C493.335 737.94 496.444 735.213 500.142 733.146C505.381 730.152 511.378 728.805 517.862 728.805C524.054 728.805 529.796 729.961 534.544 732.882H534.543C539.073 735.63 542.494 739.471 544.604 744.308C546.563 748.797 547.469 753.697 547.469 758.886C547.469 760.491 547.395 762.118 547.252 763.766C547.251 763.775 547.251 763.785 547.25 763.793C547.096 765.491 546.828 767.202 546.454 768.921C545.983 771.087 544.539 772.832 542.642 773.744L545.533 778.326C547.538 781.503 546.677 785.697 543.583 787.828C539.224 790.829 534.67 793.139 529.923 794.697C529.891 794.707 529.86 794.717 529.828 794.727C525.143 796.191 520.419 796.946 515.678 796.946C509.798 796.946 504.308 795.771 499.409 793.198C499.395 793.19 499.38 793.182 499.365 793.174C498.056 792.475 496.826 791.684 495.676 790.807C494.765 793.442 492.325 795.374 489.392 795.513L469.35 796.462C467.164 796.566 465.125 795.647 463.753 794.082C463.689 794.115 463.627 794.15 463.563 794.182C463.544 794.192 463.524 794.202 463.505 794.211C459.811 796.058 455.817 796.946 451.637 796.946C446.65 796.946 441.979 795.656 437.875 792.92C437.825 792.887 437.776 792.852 437.727 792.818C433.655 789.95 430.727 785.908 428.742 781.145C428.737 781.132 428.732 781.12 428.727 781.107C426.704 776.171 425.829 770.495 425.829 764.3C425.829 753.37 428.598 743.868 435.618 737.47L435.65 737.441C440.667 732.926 446.98 730.36 454.169 729.334C452.893 728.047 452.14 726.287 452.14 724.407V714.909C452.14 711.147 455.113 708.058 458.871 707.914L483.566 706.963ZM747.676 793.08L747.913 792.74L747.931 792.713C747.846 792.838 747.761 792.961 747.676 793.08ZM748.596 791.67C748.665 791.555 748.733 791.438 748.803 791.319C748.733 791.438 748.665 791.555 748.596 791.67ZM748.924 791.11C748.986 791.001 749.047 790.891 749.109 790.78C749.047 790.891 748.986 791.001 748.924 791.11ZM749.319 790.396C749.355 790.329 749.391 790.262 749.427 790.194C749.391 790.262 749.355 790.329 749.319 790.396ZM304.392 779.022V788.521H304.393V779.022L299.168 776.7L304.392 779.022ZM275.707 787.666L276.164 787.398C276.174 787.392 276.183 787.385 276.192 787.379C276.031 787.477 275.87 787.573 275.707 787.666ZM442.264 787.42C442.273 787.426 442.282 787.431 442.291 787.437C442.112 787.327 441.934 787.214 441.758 787.096L442.264 787.42ZM376.607 787.001C376.832 787.119 377.059 787.233 377.288 787.344C377.059 787.233 376.832 787.119 376.607 787C376.55 786.97 376.493 786.936 376.436 786.905C376.493 786.936 376.549 786.97 376.607 787.001ZM502.665 787.001C502.89 787.119 503.117 787.233 503.346 787.344C503.117 787.233 502.89 787.119 502.665 787C502.607 786.97 502.551 786.936 502.493 786.905C502.551 786.936 502.607 786.97 502.665 787.001ZM781.571 747.583L767.485 787.097L781.571 747.584L784.814 746.252L781.571 747.583ZM375.929 786.623C375.962 786.642 375.995 786.659 376.028 786.678C375.95 786.633 375.872 786.587 375.794 786.541C375.839 786.567 375.883 786.596 375.929 786.623ZM501.986 786.623C502.019 786.642 502.053 786.659 502.086 786.678C502.007 786.633 501.929 786.587 501.852 786.541C501.897 786.567 501.941 786.596 501.986 786.623ZM375.185 786.166C375.25 786.208 375.317 786.249 375.383 786.291C375.316 786.249 375.25 786.208 375.185 786.166ZM501.242 786.166C501.308 786.208 501.374 786.249 501.44 786.291C501.374 786.249 501.308 786.208 501.242 786.166ZM255.266 785.239C255.365 785.353 255.467 785.466 255.57 785.577C255.655 785.667 255.74 785.755 255.826 785.842L255.57 785.576C255.467 785.465 255.365 785.352 255.266 785.239ZM630.867 785.577C630.951 785.667 631.037 785.755 631.123 785.842L630.867 785.576C630.782 785.485 630.699 785.393 630.616 785.3L630.867 785.577ZM629.041 783.137C629.107 783.248 629.173 783.359 629.242 783.468C629.173 783.359 629.107 783.248 629.041 783.137ZM628.893 782.886C628.915 782.925 628.939 782.963 628.961 783.001C628.876 782.855 628.793 782.708 628.714 782.558C628.772 782.668 628.831 782.778 628.893 782.886ZM605.311 753.244L621.381 777.31L605.312 753.244L617.985 732.824L605.311 753.244ZM330.363 776.351C330.46 776.367 330.556 776.38 330.651 776.394C330.518 776.374 330.383 776.352 330.246 776.33L330.363 776.351ZM458.677 776.145C458.768 776.154 458.86 776.162 458.953 776.167L459.235 776.172L458.953 776.166C458.86 776.161 458.768 776.154 458.677 776.145ZM386.01 771.235H386.011C385.957 771.115 385.905 770.993 385.855 770.87H385.854C385.905 770.993 385.956 771.115 386.01 771.235ZM143.701 768.548C143.68 768.57 143.661 768.594 143.641 768.617C143.672 768.581 143.705 768.546 143.738 768.512L143.701 768.548ZM511.058 767.593C511.068 767.659 511.081 767.723 511.092 767.789C511.072 767.671 511.053 767.553 511.034 767.434L511.058 767.593ZM385 767.593C385.007 767.639 385.017 767.684 385.024 767.729C385.008 767.631 384.992 767.533 384.977 767.434L385 767.593ZM628.743 765.839C628.683 765.938 628.625 766.037 628.567 766.137C628.625 766.037 628.683 765.938 628.743 765.839ZM629.062 765.344C628.977 765.469 628.893 765.597 628.812 765.726C628.893 765.597 628.977 765.469 629.062 765.344ZM622.788 738.36L613.636 753.105L621.445 764.8C621.936 763.614 622.546 762.471 623.29 761.386C623.748 760.719 624.242 760.092 624.771 759.505C624.025 758.452 623.561 757.181 623.495 755.801L622.735 739.939C622.709 739.392 622.747 738.855 622.843 738.335L622.788 738.36ZM414.369 760.835C414.381 760.535 414.392 760.235 414.398 759.937V759.903C414.391 760.212 414.382 760.523 414.369 760.835ZM540.427 760.835C540.439 760.535 540.449 760.235 540.456 759.937V759.903C540.449 760.212 540.44 760.523 540.427 760.835ZM394.856 757.651L394.849 757.208C394.844 757.051 394.837 756.897 394.831 756.745C394.842 757.038 394.852 757.34 394.856 757.651ZM245.684 757.579C245.817 757.411 245.946 757.241 246.072 757.07C245.946 757.241 245.817 757.411 245.684 757.579ZM510.839 756.041C510.796 756.385 510.76 756.733 510.727 757.084C510.763 756.696 510.806 756.312 510.854 755.932L510.839 756.041ZM246.824 755.971C246.597 756.33 246.357 756.681 246.105 757.024C246.119 757.006 246.133 756.988 246.146 756.97C246.371 756.662 246.586 756.347 246.791 756.026C246.802 756.008 246.813 755.989 246.824 755.971ZM434.478 752.162C434.415 752.358 434.357 752.556 434.298 752.756C434.362 752.539 434.427 752.323 434.495 752.11L434.478 752.162ZM227.372 751.31V751.311C227.483 751.228 227.59 751.141 227.695 751.051V751.05C227.59 751.14 227.483 751.227 227.372 751.31ZM435.203 750.155C435.115 750.37 435.03 750.588 434.947 750.808L435.204 750.155C435.292 749.94 435.382 749.727 435.475 749.517L435.203 750.155ZM142.302 749.819C142.254 749.825 142.207 749.831 142.159 749.837C142.36 749.812 142.559 749.788 142.756 749.767L142.302 749.819ZM270.028 749.819C269.981 749.825 269.933 749.831 269.886 749.837C270.086 749.812 270.285 749.788 270.482 749.767L270.028 749.819ZM334.983 749.636C334.69 749.676 334.394 749.736 334.093 749.815H334.094C334.394 749.736 334.691 749.677 334.983 749.637V749.636ZM250.316 746.051C250.255 746.562 250.179 747.067 250.087 747.568L250.214 746.813C250.252 746.56 250.286 746.306 250.316 746.051ZM230.699 744.453C230.702 744.412 230.707 744.371 230.71 744.33L230.712 744.298C230.708 744.35 230.703 744.401 230.699 744.453ZM250.501 742.928L250.492 742.231C250.492 742.226 250.491 742.221 250.491 742.215C250.497 742.452 250.501 742.689 250.501 742.928ZM167.212 740.714C167.176 740.679 167.14 740.644 167.104 740.609C167.14 740.644 167.176 740.679 167.212 740.714ZM443.409 740.32C443.275 740.405 443.142 740.492 443.01 740.58C443.161 740.48 443.313 740.381 443.467 740.284L443.409 740.32ZM166.407 739.984L166.104 739.735C166.067 739.706 166.029 739.678 165.992 739.649C166.133 739.759 166.272 739.87 166.407 739.984ZM165.883 739.565C165.74 739.456 165.595 739.349 165.446 739.245C165.595 739.349 165.74 739.456 165.883 739.565ZM335.217 737.606C335.015 737.699 334.815 737.794 334.615 737.894C334.815 737.794 335.015 737.699 335.217 737.606ZM335.837 737.334C335.692 737.395 335.548 737.459 335.404 737.523C335.548 737.459 335.692 737.395 335.837 737.334ZM336.503 737.07C336.343 737.13 336.183 737.193 336.024 737.257C336.183 737.193 336.343 737.13 336.503 737.07ZM336.74 736.98C336.71 736.991 336.68 737.002 336.65 737.013C336.86 736.936 337.071 736.862 337.283 736.792L336.74 736.98ZM725.965 736.754L725.202 736.558C725.184 736.554 725.165 736.55 725.146 736.545C725.417 736.611 725.69 736.68 725.965 736.754ZM144.648 736.175C143.697 736.274 142.719 736.393 141.716 736.532L143.201 736.339C143.69 736.28 144.172 736.225 144.648 736.175ZM246.853 755.925C246.967 755.743 247.079 755.56 247.187 755.375C247.079 755.56 246.967 755.744 246.853 755.925Z" fill="white"/>
<path d="M784.88 745.766L781.637 747.098L767.213 787.559C765.757 791.612 764.111 795.126 762.274 798.102C760.501 801.078 758.475 803.548 756.195 805.511C753.979 807.474 751.415 808.931 748.502 809.88C745.589 810.83 742.327 811.305 738.718 811.305C735.868 811.305 732.766 811.02 729.41 810.45L731.024 797.152C732.291 797.342 733.463 797.468 734.539 797.532C735.679 797.658 736.692 797.722 737.578 797.722C739.984 797.722 741.979 797.311 743.562 796.488C745.145 795.728 746.538 794.429 747.741 792.593C748.435 791.622 749.126 790.448 749.82 789.077L732.534 748.01L728.649 746.716V737.217L755.056 736.268V745.766L751.38 747.309L758.393 769.015L764.013 748.025L760.374 746.716V737.217L784.88 736.268V745.766Z" fill="#F353B8"/>
<path d="M719.477 735.318C721.503 735.318 723.687 735.635 726.03 736.268L725.08 757.544H714.252L713.12 750.088C712.896 750.057 712.672 750.04 712.447 750.04C711.054 750.04 709.629 750.515 708.173 751.465C707.455 751.902 706.822 752.385 706.273 752.914V776.49L712.922 778.536V788.034H682.053V778.536L687.276 776.504V748.709L682.053 746.621V737.122L702.094 736.172L703.801 742.714C706.142 740.578 708.422 738.904 710.643 737.693C713.429 736.11 716.374 735.318 719.477 735.318Z" fill="#F353B8"/>
<path d="M654.395 735.318C661.17 735.318 666.204 736.711 669.497 739.497C672.853 742.284 674.531 746.558 674.531 752.32V776.213L679.755 778.536V788.034L659.714 788.984L657.69 781.378C655.729 783.851 653.523 785.786 651.07 787.179C648.348 788.699 645.308 789.458 641.952 789.458C637.33 789.458 633.656 788.002 630.934 785.089C628.211 782.177 626.85 778.282 626.85 773.407C626.85 769.924 627.609 767.074 629.129 764.858C630.649 762.642 632.96 760.995 636.062 759.918C639.229 758.842 643.25 758.304 648.126 758.304H655.534V755.834C655.534 753.428 655.028 751.719 654.015 750.706C653.001 749.629 651.355 749.09 649.075 749.09C648.125 749.09 647.049 749.154 645.846 749.281C644.977 749.372 644.075 749.513 643.141 749.704L641.952 754.98H630.554L629.794 739.118C634.733 737.851 639.229 736.901 643.281 736.268C647.397 735.635 651.102 735.318 654.395 735.318ZM651.26 766.853C649.297 766.853 647.904 767.169 647.081 767.802C646.258 768.435 645.846 769.544 645.846 771.126C645.846 772.899 646.226 774.198 646.985 775.021C647.809 775.844 648.822 776.256 650.025 776.256C651.039 776.256 652.084 776.003 653.16 775.497C654.012 775.046 654.802 774.454 655.534 773.726V766.853H651.26Z" fill="#F353B8"/>
<path d="M623.162 730.094L618.051 732.337L605.376 752.757L621.447 776.823L625.441 778.535V788.034H595.236V778.535L599.432 776.302L589.875 760.488H584.883V776.089L590.107 778.535V788.034H559.712V778.535L565.412 776.255V732.732L559.712 730.568V721.07L590.107 720.596V729.904L584.883 732.449V746.716H591.028L599.377 732.084L594.952 730.568V721.07L623.162 720.596V730.094Z" fill="#F353B8"/>
<path d="M517.928 735.318C523.31 735.318 527.648 736.332 530.941 738.358C534.297 740.384 536.735 743.138 538.254 746.621C539.774 750.103 540.534 754.03 540.534 758.399C540.534 759.792 540.471 761.217 540.344 762.673C540.218 764.066 539.996 765.491 539.679 766.948H511.1C511.156 767.299 511.214 767.648 511.279 767.993C511.722 770.272 512.641 772.14 514.034 773.596C515.427 774.989 517.516 775.686 520.302 775.686C522.139 775.686 524.165 775.369 526.381 774.736C528.661 774.039 531.036 773.058 533.505 771.791L539.679 781.575C535.817 784.234 531.859 786.229 527.806 787.559C523.754 788.825 519.733 789.458 515.744 789.458C510.804 789.458 506.466 788.477 502.73 786.514C499.058 784.551 496.208 781.638 494.182 777.776C492.156 773.913 491.142 769.132 491.142 763.433C491.142 757.544 492.219 752.51 494.372 748.331C496.588 744.151 499.691 740.954 503.68 738.738C507.669 736.458 512.419 735.318 517.928 735.318ZM516.313 748.616C514.603 748.616 513.337 749.217 512.514 750.42C511.754 751.56 511.247 753.048 510.994 754.884C510.887 755.627 510.805 756.388 510.744 757.164H520.979C520.956 755.668 520.858 754.37 520.682 753.27C520.429 751.687 519.954 750.515 519.257 749.755C518.624 748.996 517.643 748.616 516.313 748.616Z" fill="#F353B8"/>
<path d="M483.901 776.228L489.125 778.535V788.034L469.084 788.983L467.247 782.594C464.978 784.678 462.71 786.303 460.44 787.464C457.781 788.794 454.868 789.459 451.702 789.459C447.966 789.459 444.673 788.509 441.823 786.609C439.037 784.646 436.853 781.765 435.27 777.966C433.687 774.103 432.895 769.386 432.895 763.813C432.895 753.935 435.396 746.716 440.398 742.157C445.464 737.598 452.683 735.318 462.055 735.318C463.004 735.318 463.955 735.347 464.904 735.402V726.452L459.205 723.92V714.422L483.901 713.472V776.228ZM461.485 748.615C458.066 748.615 455.723 749.851 454.456 752.32C453.253 754.727 452.651 757.956 452.651 762.009C452.651 764.731 452.873 767.138 453.316 769.228C453.823 771.254 454.551 772.837 455.501 773.977C456.514 775.116 457.781 775.686 459.301 775.686C460.441 775.685 461.644 775.369 462.91 774.736C463.543 774.388 464.208 773.976 464.904 773.501V748.933C463.646 748.722 462.506 748.615 461.485 748.615Z" fill="#F353B8"/>
<path d="M391.871 735.318C397.253 735.318 401.591 736.332 404.883 738.358C408.239 740.384 410.677 743.138 412.197 746.621C413.717 750.103 414.477 754.03 414.477 758.399C414.477 759.792 414.413 761.217 414.287 762.673C414.16 764.066 413.938 765.491 413.622 766.948H385.042C385.098 767.299 385.156 767.648 385.221 767.993C385.664 770.272 386.583 772.14 387.976 773.596C389.369 774.989 391.459 775.686 394.245 775.686C396.081 775.686 398.108 775.369 400.324 774.736C402.603 774.039 404.978 773.058 407.448 771.791L413.622 781.575C409.759 784.234 405.801 786.229 401.749 787.559C397.696 788.825 393.675 789.458 389.686 789.458C384.747 789.458 380.409 788.477 376.673 786.514C373.001 784.551 370.151 781.638 368.125 777.776C366.098 773.913 365.085 769.132 365.085 763.433C365.085 757.544 366.162 752.51 368.315 748.331C370.531 744.152 373.634 740.954 377.623 738.738C381.612 736.458 386.362 735.318 391.871 735.318ZM390.255 748.616C388.546 748.616 387.28 749.217 386.457 750.42C385.697 751.56 385.19 753.048 384.937 754.884C384.831 755.627 384.749 756.388 384.687 757.164H394.922C394.899 755.668 394.801 754.37 394.625 753.27C394.372 751.687 393.897 750.515 393.201 749.755C392.567 748.995 391.585 748.616 390.255 748.616Z" fill="#F353B8"/>
<path d="M306.091 809.88V800.382L313.595 797.057L311.315 800.002V747.191L313.31 749.471L306.091 746.621V737.123L326.133 736.173L328.128 744.531L326.133 743.392C329.109 740.795 331.959 738.801 334.681 737.408C337.468 736.014 340.444 735.318 343.61 735.318C347.346 735.318 350.607 736.299 353.393 738.262C356.179 740.162 358.364 743.012 359.947 746.811C361.53 750.547 362.322 755.17 362.322 760.679C362.322 767.137 361.214 772.488 358.997 776.731C356.844 780.973 353.805 784.171 349.879 786.324C346.016 788.414 341.52 789.459 336.391 789.459C335.061 789.459 333.7 789.364 332.307 789.174C330.977 789.047 329.584 788.857 328.128 788.604L330.312 786.609V800.002L328.602 797.437L336.486 800.382V809.88H306.091ZM333.732 776.161C337.151 776.161 339.462 774.926 340.665 772.457C341.932 769.987 342.565 766.726 342.565 762.673C342.565 759.95 342.312 757.576 341.805 755.549C341.362 753.523 340.665 751.94 339.716 750.8C338.766 749.66 337.499 749.091 335.916 749.091C334.776 749.091 333.573 749.407 332.307 750.04C331.04 750.674 329.647 751.623 328.128 752.89L330.312 748.236V778.82L328.128 775.401C330.28 775.908 332.149 776.161 333.732 776.161Z" fill="#F353B8"/>
<path d="M279.097 735.318C285.873 735.318 290.907 736.711 294.2 739.497C297.556 742.284 299.234 746.558 299.234 752.32V776.213L304.458 778.536V788.034L284.417 788.984L282.393 781.378C280.431 783.851 278.225 785.786 275.773 787.179C273.05 788.699 270.01 789.458 266.654 789.458C262.031 789.458 258.359 788.002 255.636 785.089C252.913 782.177 251.551 778.282 251.551 773.407C251.551 769.924 252.312 767.074 253.832 764.858C255.351 762.642 257.662 760.995 260.765 759.918C263.931 758.842 267.952 758.304 272.828 758.304H280.237V755.834C280.237 753.428 279.73 751.719 278.717 750.706C277.704 749.629 276.057 749.09 273.778 749.09C272.828 749.09 271.751 749.154 270.548 749.281C269.679 749.372 268.777 749.513 267.842 749.704L266.654 754.98H255.256L254.497 739.118C259.436 737.851 263.931 736.901 267.984 736.268C272.1 735.635 275.804 735.318 279.097 735.318ZM275.962 766.853C274 766.853 272.607 767.169 271.784 767.802C270.961 768.435 270.548 769.544 270.548 771.126C270.548 772.899 270.928 774.198 271.688 775.021C272.511 775.844 273.525 776.256 274.728 776.256C275.741 776.256 276.786 776.003 277.862 775.497C278.713 775.046 279.504 774.454 280.237 773.726V766.853H275.962Z" fill="#F353B8"/>
<path d="M226.631 720.596C232.267 720.596 236.826 721.608 240.309 723.635C243.855 725.598 246.451 728.226 248.098 731.519C249.744 734.811 250.566 738.452 250.566 742.441C250.566 746.684 249.585 750.61 247.622 754.22C245.722 757.829 242.683 760.71 238.504 762.863C234.325 765.016 228.879 766.093 222.167 766.093H219.697V776.263L227.296 778.535V788.034H194.526V778.535L200.226 776.318V732.668L194.526 730.568V721.07L220.077 720.596H226.631ZM219.697 752.32H222.167C225.08 752.32 227.233 751.433 228.626 749.66C230.082 747.887 230.811 745.607 230.811 742.821C230.81 740.162 230.177 738.072 228.91 736.553C227.707 735.033 225.902 734.273 223.496 734.273H219.697V752.32Z" fill="#F353B8"/>
<path d="M151.37 735.318C158.146 735.318 163.18 736.711 166.473 739.497C169.829 742.284 171.507 746.558 171.507 752.32V776.213L176.73 778.536V788.034L156.689 788.984L154.666 781.378C152.704 783.851 150.498 785.786 148.046 787.179C145.323 788.699 142.283 789.458 138.927 789.458C134.304 789.458 130.632 788.002 127.909 785.089C125.186 782.177 123.825 778.282 123.825 773.407C123.825 769.924 124.585 767.074 126.104 764.858C127.624 762.642 129.935 760.995 133.038 759.918C136.204 758.842 140.226 758.304 145.102 758.304H152.51V755.834C152.51 753.428 152.003 751.719 150.99 750.706C149.977 749.629 148.33 749.09 146.051 749.09C145.101 749.09 144.024 749.154 142.821 749.281C141.952 749.372 141.05 749.513 140.115 749.704L138.927 754.98H127.529L126.77 739.118C131.709 737.851 136.204 736.901 140.257 736.268C144.373 735.635 148.077 735.318 151.37 735.318ZM148.235 766.853C146.273 766.853 144.88 767.169 144.057 767.802C143.234 768.435 142.821 769.544 142.821 771.126C142.821 772.899 143.201 774.198 143.961 775.021C144.784 775.844 145.798 776.256 147.001 776.256C148.014 776.256 149.059 776.003 150.136 775.497C150.987 775.046 151.777 774.454 152.51 773.726V766.853H148.235Z" fill="#F353B8"/>
<path d="M102.22 730.094L96.2368 732.794V774.262H107.577L109.535 764.763H120.932V788.034H71.0659V778.535L76.7651 776.283V732.82L71.0659 730.568V721.07L102.22 720.596V730.094Z" fill="#F353B8"/>
</svg>
