<svg width="946" height="142" viewBox="0 0 946 142" fill="none" xmlns="http://www.w3.org/2000/svg">
<path d="M727.651 9.30109C729.528 9.2695 731.339 9.99339 732.677 11.3089C734.015 12.6247 734.769 14.4234 734.77 16.3001V28.7005C734.77 31.4783 733.127 33.994 730.583 35.1107L725.899 37.1663L712.875 58.1497L726.312 78.2708C726.967 75.3454 728.091 72.5989 729.786 70.1273C730.699 68.796 731.739 67.5976 732.89 66.5247C731.462 65.3116 730.523 63.5342 730.427 61.5247L729.436 40.8157C729.277 37.4982 731.471 34.5256 734.688 33.7005C741.304 32.0043 747.398 30.7134 752.955 29.845L752.971 29.8421C758.609 28.9747 763.81 28.5208 768.544 28.5208C778.123 28.5208 786.625 30.4539 792.73 35.5911H792.731C792.748 35.605 792.766 35.6192 792.782 35.6331H792.781C794.751 37.2771 796.363 39.1556 797.652 41.2249V37.8773C797.653 34.1404 800.589 31.0622 804.321 30.8851L830.486 29.6448L830.795 29.637C833.441 29.6275 835.828 31.1109 837.021 33.3968C837.519 33.096 838.019 32.8093 838.52 32.5345L838.957 32.2903C843.489 29.8053 848.372 28.5209 853.51 28.5208C856.879 28.5208 860.352 29.0464 863.893 30.0032C864.665 30.2119 865.376 30.5456 866.009 30.9769L899.707 29.765C901.459 29.702 903.164 30.3006 904.491 31.429C905.162 31.1831 905.881 31.0353 906.632 31.0062L938.624 29.7659C940.526 29.6922 942.376 30.3968 943.748 31.7161C945.12 33.0357 945.895 34.8577 945.896 36.761V49.1614C945.895 52.0002 944.181 54.5575 941.555 55.636L940.206 56.1898L922.425 106.073C922.423 106.078 922.42 106.085 922.418 106.09C920.403 111.697 918.074 116.71 915.396 121.069C912.752 125.506 909.642 129.34 906.015 132.463L906.014 132.462C902.394 135.65 898.223 138.001 893.572 139.518C888.957 141.023 883.951 141.723 878.63 141.723C874.45 141.723 870.002 141.306 865.306 140.508C861.622 139.882 859.078 136.473 859.528 132.763L861.637 115.403C861.865 113.526 862.842 111.821 864.347 110.676C865.851 109.531 867.755 109.043 869.624 109.324C870.736 109.49 871.755 109.611 872.685 109.69L873.585 109.754L873.947 109.785C875.248 109.93 876.305 109.991 877.142 109.991C879.533 109.991 880.941 109.575 881.725 109.168L881.925 109.068C882.586 108.75 883.509 108.054 884.555 106.458L884.714 106.226C884.92 105.937 885.132 105.62 885.35 105.276L867.868 63.7464L867.819 64.8499C867.652 68.5906 864.571 71.5373 860.826 71.5374H846.689C845.456 71.5373 844.289 71.2136 843.273 70.6448V84.1009L847.013 85.2513C849.949 86.155 851.953 88.8691 851.953 91.9417V104.342C851.953 108.208 848.819 111.342 844.953 111.342H804.652C804.137 111.342 803.634 111.285 803.15 111.179C802.772 111.261 802.383 111.315 801.984 111.334L775.819 112.575C772.907 112.712 770.259 111.036 769.1 108.443C768.627 108.743 768.15 109.036 767.662 109.313C767.647 109.322 767.631 109.331 767.615 109.339C762.939 111.949 757.781 113.202 752.3 113.202C746.349 113.202 740.923 111.697 736.408 108.454C735.136 110.204 733.074 111.342 730.745 111.342H691.312C690.1 111.342 688.958 111.033 687.964 110.491C686.969 111.033 685.829 111.342 684.616 111.342H644.936C641.07 111.342 637.936 108.208 637.936 104.342V91.9417C637.936 89.0798 639.679 86.5057 642.336 85.4427L645.376 84.2259V36.9749L642.45 35.8646C639.733 34.8323 637.936 32.2276 637.936 29.3206V16.9202C637.936 13.0973 641.004 9.98114 644.826 9.9212L684.507 9.30109C685.89 9.27947 687.237 9.66934 688.385 10.4026C689.141 10.1058 689.963 9.93576 690.822 9.9212L727.651 9.30109ZM210.092 9.30011C218.158 9.30011 225.403 10.7314 231.338 14.1439C237.074 17.3192 241.532 21.7394 244.378 27.43C245.312 29.299 246.077 31.2285 246.677 33.2112C252.546 31.7547 257.99 30.6277 262.999 29.845L263.016 29.8421C268.653 28.9748 273.854 28.5209 278.588 28.5208C288.167 28.5208 296.668 30.454 302.774 35.5911H302.775C302.792 35.605 302.81 35.6192 302.826 35.6331H302.825C304.376 36.9276 305.705 38.3682 306.829 39.9319V37.8773C306.829 34.1404 309.765 31.0622 313.498 30.8851L339.662 29.6448L339.977 29.637C342.498 29.6297 344.778 30.9765 346.019 33.0735C346.668 32.7023 347.317 32.349 347.966 32.0169L348.023 31.9876C352.649 29.6748 357.609 28.5209 362.811 28.5208C368.986 28.5209 374.683 30.169 379.614 33.6429H379.613C384.293 36.8609 387.761 41.4252 390.203 46.9144C393.48 41.5995 397.829 37.3255 403.216 34.2054L403.815 33.8655C410.256 30.2043 417.679 28.5209 425.815 28.5208C433.628 28.5208 440.677 29.9787 446.421 33.4964C452.001 36.8654 456.185 41.5589 458.768 47.4778C461.19 53.0301 462.328 59.1298 462.328 65.6536C462.328 67.6842 462.236 69.7471 462.054 71.8401C462.053 71.8491 462.052 71.8585 462.051 71.8675C461.858 73.9909 461.522 76.1366 461.052 78.3011C460.397 81.3129 457.86 83.5158 454.838 83.7855L460.132 92.1741C462.137 95.3514 461.276 99.5455 458.182 101.676C452.643 105.49 446.879 108.409 440.894 110.373C440.862 110.384 440.831 110.394 440.8 110.404C434.877 112.255 428.923 113.202 422.963 113.202C415.574 113.202 408.758 111.728 402.719 108.555C402.704 108.547 402.689 108.539 402.675 108.532C396.582 105.275 391.88 100.424 388.615 94.2015C388.575 94.1252 388.537 94.0476 388.497 93.971C385.124 100.103 380.406 104.933 374.36 108.248C374.349 108.255 374.337 108.261 374.325 108.267C368.284 111.535 361.465 113.108 354.063 113.198L355.959 113.906C358.695 114.928 360.51 117.542 360.51 120.463V132.863C360.51 136.729 357.376 139.863 353.51 139.863H313.829C309.963 139.862 306.829 136.728 306.829 132.863V120.463C306.829 117.694 308.462 115.185 310.994 114.063L313.649 112.886V111.065C313.132 111.215 312.589 111.308 312.028 111.334L285.863 112.575C282.951 112.712 280.303 111.036 279.144 108.443C278.671 108.743 278.193 109.036 277.706 109.313C277.691 109.322 277.675 109.331 277.659 109.339C272.983 111.949 267.825 113.202 262.344 113.202C254.708 113.202 247.938 110.726 242.846 105.279C237.822 99.9042 235.627 92.9699 235.627 85.2464C235.627 79.702 236.841 74.487 239.83 70.1273C240.743 68.796 241.783 67.5976 242.934 66.5247C242.699 66.325 242.476 66.11 242.27 65.8812C239.032 70.8765 234.445 74.795 228.798 77.7044C222.938 80.7231 215.925 82.2519 208.04 82.6116V83.762L212.966 85.2357C215.929 86.122 217.96 88.8486 217.96 91.9417V104.342C217.96 108.208 214.826 111.342 210.96 111.342H168.18C164.314 111.342 161.18 108.208 161.18 104.342V91.9417C161.18 89.0554 162.952 86.4647 165.642 85.4183L168.619 84.2601V36.9427L165.759 35.889C163.007 34.8749 161.18 32.253 161.18 29.3206V16.9202C161.18 13.1055 164.235 9.99246 168.049 9.9212L201.406 9.30206L201.536 9.30011H210.092ZM877.929 134.719L878.63 134.723C878.175 134.723 877.714 134.718 877.249 134.706C877.477 134.712 877.703 134.716 877.929 134.719ZM883.676 115.948L883.735 115.927C883.797 115.903 883.858 115.878 883.919 115.854C883.839 115.886 883.757 115.917 883.676 115.948ZM883.958 115.837C884.04 115.804 884.121 115.769 884.201 115.735C884.121 115.769 884.04 115.804 883.958 115.837ZM884.291 115.696C884.365 115.663 884.439 115.629 884.512 115.595C884.439 115.629 884.365 115.663 884.291 115.696ZM884.575 115.566C884.703 115.505 884.83 115.444 884.954 115.379V115.378C884.83 115.443 884.703 115.505 884.575 115.566ZM47.5664 9.30109C49.4409 9.27257 51.2492 9.99746 52.585 11.3128C53.9207 12.6283 54.6727 14.4254 54.6729 16.3001V28.7005C54.6729 31.4525 53.0602 33.9495 50.5518 35.0814L46.8604 36.7464V79.3616H48.9609L50.3652 72.5482L50.4346 72.2464C51.2153 69.1525 54.0036 66.9616 57.2207 66.9612H72.1016C73.1679 66.9613 74.1784 67.2017 75.083 67.6282C75.438 67.2467 75.805 66.8787 76.1846 66.5247C74.7567 65.3116 73.818 63.5343 73.7217 61.5247L72.7295 40.8157C72.5709 37.4982 74.7662 34.5256 77.9834 33.7005C84.5987 32.0043 90.6925 30.7134 96.25 29.845L96.2656 29.8421C101.904 28.9747 107.105 28.5208 111.839 28.5208C121.418 28.5209 129.919 30.4538 136.025 35.5911C136.031 35.5957 136.037 35.6011 136.043 35.6058C136.054 35.6149 136.065 35.624 136.076 35.6331H136.075C142.501 40.9967 145.127 48.8497 145.127 57.7171V84.3616L147.79 85.5452C150.318 86.6686 151.947 89.1757 151.947 91.9417V104.342C151.947 108.079 149.011 111.157 145.278 111.334L119.114 112.575C116.202 112.712 113.554 111.036 112.395 108.443C111.922 108.743 111.444 109.036 110.956 109.313C110.941 109.321 110.926 109.331 110.91 109.339C106.234 111.949 101.076 113.202 95.5938 113.202C89.05 113.202 83.1431 111.382 78.3818 107.432C77.2404 109.748 74.8581 111.342 72.1016 111.342H7C3.13419 111.342 0 108.208 0 104.342V91.9417C0.000308103 89.069 1.75602 86.4877 4.42773 85.4319L7.44043 84.2415V37.0208L4.42773 35.8314C1.75584 34.7755 0 32.1936 0 29.3206V16.9202C0.000337404 13.0963 3.07 9.9797 6.89355 9.9212L47.5664 9.30109ZM545.694 0.00518799C547.596 -0.0678484 549.445 0.637157 550.816 1.95636C552.188 3.2759 552.963 5.09727 552.963 7.00031V50.2005C553.108 49.8998 553.256 49.6005 553.409 49.304L553.448 49.2298C556.951 42.6242 561.949 37.4412 568.385 33.8655C574.826 30.2042 582.248 28.5209 590.385 28.5208C598.197 28.5208 605.246 29.9789 610.99 33.4964H610.991C616.571 36.8654 620.754 41.5589 623.337 47.4778C625.76 53.0302 626.897 59.1297 626.897 65.6536C626.897 67.6842 626.805 69.7471 626.623 71.8401C626.622 71.8491 626.622 71.8585 626.621 71.8675C626.428 73.9909 626.093 76.1366 625.622 78.3011C624.967 81.3131 622.43 83.516 619.407 83.7855L624.701 92.1741C626.706 95.3514 625.845 99.5455 622.751 101.676C617.212 105.49 611.449 108.409 605.464 110.373C605.433 110.384 605.401 110.394 605.369 110.404C599.446 112.255 593.493 113.202 587.533 113.202C580.144 113.202 573.329 111.728 567.289 108.555C567.275 108.547 567.26 108.539 567.245 108.532C564.467 107.047 561.979 105.229 559.783 103.102V104.342C559.783 108.079 556.847 111.157 553.114 111.334L526.95 112.575C524.178 112.706 521.639 111.192 520.402 108.799C519.78 109.162 519.154 109.507 518.522 109.83C518.503 109.84 518.484 109.85 518.465 109.86C513.958 112.113 509.074 113.202 503.926 113.202C497.798 113.202 492.121 111.623 487.146 108.307C487.097 108.274 487.047 108.239 486.998 108.204C482.076 104.736 478.48 99.8138 476.012 93.89C476.007 93.8777 476.001 93.8651 475.996 93.8528C473.49 87.7371 472.374 80.6191 472.374 72.722C472.374 58.7739 475.907 47.0666 484.455 39.2757L484.487 39.2464C492.109 32.3873 502.267 29.0922 514.162 28.5911V28.4964L510.879 27.0374C508.352 25.9138 506.723 23.4068 506.723 20.6409V8.24054C506.723 4.4796 509.695 1.39027 513.453 1.24542L545.694 0.00518799ZM893.126 105.708C892.793 106.365 892.461 106.987 892.129 107.574C892.462 106.987 892.794 106.366 893.127 105.709L893.126 105.708ZM804.652 50.2776L811.473 53.0052V89.2894L804.652 91.9417V104.342L804.653 91.9427L811.474 89.2894V53.0052L804.653 50.2776V37.8773H804.652V50.2776ZM569.659 101.865C569.95 102.034 570.246 102.199 570.545 102.359C570.245 102.198 569.95 102.033 569.658 101.864L569.659 101.865ZM489.345 101.158C489.444 101.244 489.544 101.33 489.645 101.414C489.544 101.33 489.444 101.244 489.345 101.158ZM247.959 100.498C248.054 100.6 248.151 100.7 248.248 100.799L247.96 100.498C247.797 100.324 247.636 100.146 247.48 99.9661L247.959 100.498ZM489.067 100.915C489.098 100.943 489.13 100.97 489.161 100.997C489.025 100.876 488.889 100.754 488.756 100.629L489.067 100.915ZM487.851 99.7298C487.942 99.8256 488.034 99.9202 488.126 100.014C488.03 99.9164 487.935 99.8178 487.84 99.7181L487.851 99.7298ZM78.6328 96.9866C78.6811 97.0721 78.7317 97.156 78.7812 97.2405C78.6496 97.0159 78.5211 96.789 78.3984 96.5579L78.6328 96.9866ZM561.275 94.0823C561.343 94.1801 561.412 94.2768 561.48 94.3734C561.313 94.1378 561.148 93.8991 560.986 93.6566L561.275 94.0823ZM175.619 89.0482L168.18 91.9417V91.9427L175.62 89.0491V32.0618L175.619 32.0609V89.0482ZM725.531 89.7073L730.745 91.9417L725.532 89.7073L704.551 58.2884L725.531 89.7073ZM395.065 91.4193C395.15 91.5748 395.236 91.7291 395.323 91.8821V91.8812C395.236 91.7284 395.15 91.5745 395.065 91.4193ZM274.586 88.7864C274.681 88.7669 274.776 88.7467 274.871 88.7239C274.776 88.7467 274.681 88.7669 274.586 88.7864ZM274.951 88.7034C275.091 88.6687 275.231 88.6308 275.372 88.5892C275.231 88.6308 275.091 88.6687 274.951 88.7034ZM108.663 88.5794C108.82 88.5322 108.977 88.479 109.135 88.4232C108.977 88.4791 108.82 88.5322 108.663 88.5794ZM275.93 88.4085C275.768 88.4662 275.607 88.518 275.447 88.5667C275.776 88.4666 276.108 88.3473 276.441 88.2093C276.27 88.2804 276.1 88.3476 275.93 88.4085ZM109.255 88.3792C109.387 88.3307 109.52 88.2795 109.653 88.2249C109.52 88.2795 109.387 88.3306 109.255 88.3792ZM429.722 88.2064C429.45 88.2165 429.181 88.221 428.915 88.221L428.916 88.222C429.182 88.222 429.45 88.2165 429.722 88.2064ZM276.459 88.2025C276.631 88.1311 276.804 88.0563 276.977 87.9749L276.976 87.9739C276.803 88.0552 276.63 88.131 276.459 88.2025ZM109.727 88.1946C109.892 88.1254 110.06 88.0535 110.227 87.9749V87.9739C110.059 88.0526 109.892 88.1253 109.727 88.1946ZM758.584 87.0032C758.675 87.1265 758.77 87.2446 758.872 87.3548C758.939 87.4218 759.007 87.4863 759.076 87.5491L758.872 87.3538C758.77 87.2437 758.675 87.1263 758.584 87.0032ZM601.421 86.9818C601.06 87.085 600.702 87.1824 600.349 87.2728C600.702 87.1824 601.06 87.086 601.422 86.9827L601.421 86.9818ZM437.974 86.6243C437.598 86.7494 437.223 86.8681 436.852 86.9818V86.9827C437.224 86.8691 437.598 86.7497 437.974 86.6243ZM280.076 85.6624C279.74 85.9963 279.395 86.3078 279.04 86.597C279.395 86.3082 279.74 85.9971 280.076 85.6634V85.6624ZM770.032 85.6624C769.696 85.9963 769.351 86.3078 768.996 86.597C769.351 86.3082 769.696 85.9971 770.032 85.6634V85.6624ZM508.887 85.9905C508.964 86.0778 509.043 86.1624 509.123 86.2444L508.887 85.9896C508.826 85.9173 508.768 85.8429 508.709 85.7679C508.768 85.8431 508.826 85.9181 508.887 85.9905ZM54.665 86.3616H39.8613V86.3626H54.665L57.2217 73.9622L72.1016 73.9612H57.2207L54.665 86.3616ZM242.627 85.2464L242.633 85.8021C242.63 85.6179 242.628 85.4327 242.628 85.2464C242.628 85.0257 242.631 84.807 242.636 84.5901C242.631 84.807 242.627 85.0257 242.627 85.2464ZM419.774 84.3685C420.072 84.7625 420.391 85.1381 420.731 85.4944C420.618 85.3758 420.507 85.255 420.398 85.1321C420.29 85.0092 420.183 84.8843 420.079 84.7571C419.975 84.6298 419.874 84.5 419.774 84.3685ZM508.52 85.5179C508.563 85.5776 508.607 85.6375 508.651 85.6956C508.607 85.6375 508.563 85.5776 508.52 85.5179ZM113.326 85.6624H113.327V76.6898H113.326V85.6624ZM521.162 53.2952V85.3704C521.1 85.4125 521.038 85.4531 520.977 85.4944C521.038 85.4529 521.101 85.4127 521.163 85.3704V53.2952C521.04 53.2745 520.917 53.2558 520.795 53.2366C520.916 53.2557 521.039 53.2746 521.162 53.2952ZM508.26 85.1487C508.31 85.2237 508.361 85.2978 508.412 85.3704C508.361 85.2978 508.31 85.2237 508.26 85.1487ZM311.877 57.7171V84.3616L313.649 85.1487V57.7318L311.87 57.0296C311.874 57.2579 311.877 57.4874 311.877 57.7171ZM508.052 84.8294C508.102 84.9091 508.152 84.9874 508.203 85.0648C508.152 84.9874 508.102 84.9091 508.052 84.8294ZM801.832 57.7171V84.3616L803.231 84.9837L804.473 84.5013V57.7444L802.053 56.7767C801.974 56.745 801.895 56.7114 801.817 56.6771C801.826 57.022 801.832 57.3689 801.832 57.7171ZM684.796 84.2962L686.132 84.9222L684.796 82.7103V84.2962ZM358.742 84.4339C358.819 84.2943 358.896 84.1523 358.967 84.0062H358.966C358.895 84.1522 358.819 84.2944 358.742 84.4339ZM507.809 84.4232C507.866 84.5226 507.924 84.62 507.982 84.7161C507.924 84.62 507.866 84.5226 507.809 84.4232ZM507.532 83.9144C507.371 83.6011 507.216 83.2731 507.069 82.93H507.068C507.215 83.2732 507.371 83.6009 507.532 83.9144ZM100.689 82.8284C100.69 82.8415 100.691 82.8545 100.691 82.8675C100.691 82.8545 100.69 82.8415 100.689 82.8284ZM352.45 60.5355V81.2894C352.519 81.214 352.592 81.1067 352.673 80.9398C352.694 80.8969 352.716 80.8543 352.737 80.8118C353.705 78.9257 354.446 75.8872 354.446 71.2337C354.446 68.0889 354.151 65.583 353.663 63.6312C353.646 63.5643 353.631 63.4963 353.616 63.429C353.278 61.885 352.864 60.9968 352.562 60.5179C352.529 60.5226 352.491 60.5277 352.45 60.5355ZM514.162 60.3802C514.034 60.4743 513.909 60.614 513.77 60.8773C512.875 62.6824 512.166 65.6839 512.166 70.3655C512.166 73.4986 512.42 76.0976 512.858 78.2171C513.258 79.7729 513.708 80.6936 514.045 81.2064C514.08 81.2015 514.119 81.195 514.162 81.1868V60.3802ZM904.315 79.511L904.316 79.513L911.653 52.1116L911.651 52.1107L904.315 79.511ZM759.206 77.7796C759.164 77.8078 759.123 77.8382 759.083 77.8675C759.136 77.8294 759.189 77.7908 759.245 77.7542L759.206 77.7796ZM77.5518 76.4105C77.5338 76.4504 77.5177 76.4913 77.5 76.5316C77.5315 76.46 77.5623 76.3884 77.5947 76.3177C77.5806 76.3486 77.5658 76.3794 77.5518 76.4105ZM77.9023 75.6868C77.8738 75.7424 77.8444 75.7977 77.8164 75.8538C77.8444 75.7977 77.8738 75.7424 77.9023 75.6868ZM78.2002 75.1341C78.163 75.1996 78.1271 75.266 78.0908 75.3323C78.1271 75.266 78.163 75.1996 78.2002 75.1341ZM79.2373 73.5511C79.1052 73.7261 78.9775 73.9044 78.8535 74.0853C78.71 74.2946 78.5726 74.5088 78.4395 74.7269C78.5725 74.509 78.711 74.2955 78.8545 74.0862C79.1025 73.7245 79.3663 73.374 79.6465 73.0355L79.2373 73.5511ZM246.396 73.0355V73.0364C246.537 72.8672 246.681 72.7008 246.829 72.5374V72.5364C246.681 72.6999 246.537 72.8662 246.396 73.0355ZM232.753 66.4632C232.816 66.4026 232.879 66.3416 232.941 66.2806C232.879 66.3416 232.816 66.4026 232.753 66.4632ZM113.326 62.306V65.5296H113.327V62.306C113.327 62.1336 113.325 61.964 113.32 61.7972L113.326 62.306ZM233.829 65.3694C233.88 65.314 233.932 65.2583 233.982 65.2025C233.932 65.2583 233.88 65.314 233.829 65.3694ZM235.052 63.9476C234.948 64.0783 234.843 64.2084 234.736 64.3372L235.052 63.9485C235.155 63.818 235.258 63.6864 235.358 63.554L235.052 63.9476ZM429.799 64.0413H416.437V64.0423H429.799C429.793 63.6898 429.784 63.3457 429.772 63.0101C429.784 63.3454 429.793 63.6891 429.799 64.0413ZM594.303 62.1331C594.336 62.7391 594.358 63.3751 594.368 64.0413H581.007V64.0423H594.369C594.359 63.3757 594.336 62.7394 594.303 62.1331ZM581.217 61.9398C581.201 62.0718 581.187 62.2044 581.172 62.3372C581.192 62.1568 581.213 61.9771 581.235 61.7982L581.217 61.9398ZM745.665 38.3109C742.73 38.9308 739.651 39.6541 736.427 40.4808L737.419 61.1898L736.428 40.4818C739.652 39.6551 742.731 38.9308 745.665 38.3109ZM201.04 57.7181H204.265L204.264 57.7171H201.04V57.7181ZM356.985 54.9759C357.072 55.0513 357.157 55.13 357.241 55.2112C357.409 55.3739 357.571 55.5478 357.726 55.7337C358.036 56.1058 358.326 56.5138 358.595 56.9583C358.326 56.514 358.037 56.1057 357.727 55.7337C357.417 55.3616 357.08 55.0362 356.719 54.7571L356.985 54.9759ZM239.179 56.5862C239.119 56.7399 239.058 56.8933 238.995 57.0462L239.18 56.5862C239.24 56.4327 239.298 56.2786 239.355 56.1243L239.179 56.5862ZM768.584 56.2503C768.56 56.2166 768.538 56.1816 768.514 56.1487L768.5 56.1312C768.529 56.1698 768.556 56.2105 768.584 56.2503ZM278.285 55.8187C278.223 55.7468 278.159 55.6763 278.093 55.6097H278.092L278.285 55.8187ZM584.494 53.9954C584.14 54.2618 583.821 54.5759 583.537 54.9378C583.605 54.851 583.676 54.7672 583.748 54.6859C583.9 54.5141 584.062 54.3546 584.232 54.2073C584.318 54.1338 584.405 54.0629 584.494 53.9954ZM427.718 54.5618H427.719C427.664 54.4957 427.609 54.4314 427.552 54.3694H427.551C427.607 54.4313 427.663 54.4958 427.718 54.5618ZM356.157 54.3734C356.064 54.3173 355.969 54.2647 355.872 54.2142C355.969 54.2646 356.064 54.3173 356.157 54.3734ZM355.843 54.1995C355.759 54.1562 355.674 54.1148 355.588 54.0755C355.674 54.1148 355.759 54.1562 355.843 54.1995ZM100.086 53.8177C100.019 53.8259 99.9526 53.8344 99.8857 53.8431C100.152 53.8086 100.417 53.7769 100.679 53.7493L100.086 53.8177ZM677.797 50.4017H685.818V50.4007H677.797V50.4017ZM208.04 48.4993C208.343 47.7289 208.548 46.7074 208.548 45.3167C208.548 43.7112 208.295 42.7536 208.04 42.1907V48.4993ZM215.514 44.1273C215.536 44.5135 215.548 44.91 215.548 45.3167L215.549 45.3177C215.549 44.7751 215.528 44.2507 215.487 43.7444L215.514 44.1273ZM299.836 42.4232C299.723 42.3018 299.607 42.1829 299.49 42.0648C299.607 42.1828 299.723 42.3017 299.836 42.4232ZM568.977 41.7484H568.978C569.873 41.1157 570.809 40.5282 571.785 39.9857C572.009 39.858 572.234 39.7329 572.461 39.6107C572.399 39.6439 572.337 39.6766 572.275 39.7103C572.111 39.8003 571.947 39.8918 571.784 39.9847C570.807 40.5273 569.872 41.1155 568.977 41.7484ZM299.447 42.0208C299.344 41.9169 299.238 41.8145 299.132 41.7132C299.238 41.8144 299.344 41.9169 299.447 42.0208ZM298.305 40.9778C298.567 41.1956 298.821 41.421 299.067 41.6526C298.949 41.5417 298.831 41.4312 298.709 41.3235C298.576 41.2062 298.441 41.0904 298.305 40.9769V40.9778ZM445.493 41.3509C445.29 41.1901 445.084 41.0328 444.874 40.8773C445.084 41.0328 445.29 41.1901 445.493 41.3509ZM444.651 40.7161C444.532 40.6297 444.413 40.5431 444.292 40.4583C444.413 40.543 444.532 40.6298 444.651 40.7161ZM375.583 39.3655C375.81 39.5203 376.034 39.6798 376.255 39.8441C376.034 39.6796 375.809 39.5193 375.582 39.3646L375.583 39.3655ZM444.027 40.2767C443.877 40.1739 443.724 40.0722 443.57 39.972C443.724 40.0722 443.876 40.174 444.027 40.2767ZM296.586 39.6985C296.738 39.7981 296.888 39.8992 297.036 40.0023L296.587 39.6985C296.435 39.599 296.28 39.5016 296.123 39.4056L296.586 39.6985ZM441.761 38.887C442.117 39.0794 442.464 39.2808 442.804 39.4896C443.015 39.6174 443.224 39.7489 443.43 39.8812C443.357 39.8343 443.285 39.7858 443.211 39.7396C443.077 39.6551 442.94 39.5712 442.804 39.4886C442.465 39.2799 442.117 39.0792 441.761 38.887ZM573.275 39.1878C573.046 39.3023 572.819 39.4197 572.594 39.5394C572.819 39.4194 573.046 39.3023 573.275 39.1878ZM606.856 39.1819C606.79 39.1435 606.723 39.1056 606.655 39.0677C606.723 39.1055 606.79 39.1435 606.856 39.1819ZM605.698 38.5599C605.887 38.6541 606.073 38.7513 606.258 38.8499C606.215 38.8268 606.172 38.8024 606.129 38.7796C605.986 38.7046 605.842 38.6313 605.697 38.5589L605.698 38.5599ZM575.187 38.3128C575.103 38.3476 575.02 38.3819 574.938 38.4173C575.02 38.3819 575.103 38.3476 575.187 38.3128ZM575.938 38.0101C575.834 38.0502 575.731 38.0901 575.629 38.1312C575.731 38.0901 575.834 38.0502 575.938 38.0101ZM684.796 36.1507V38.0696L686.312 35.4114L684.796 36.1507ZM576.65 37.7415C576.533 37.784 576.416 37.8277 576.3 37.8714C576.416 37.8277 576.533 37.784 576.65 37.7415ZM577.374 37.4886C577.264 37.5256 577.154 37.5638 577.045 37.6019C577.154 37.5638 577.264 37.5256 577.374 37.4886ZM578.132 37.2435C577.993 37.2867 577.854 37.3314 577.716 37.3763C577.854 37.3314 577.993 37.2867 578.132 37.2435ZM578.815 37.0394C578.737 37.062 578.659 37.0865 578.58 37.1097C578.659 37.0865 578.737 37.062 578.815 37.0394ZM579.603 36.8226C579.5 36.8496 579.397 36.8787 579.295 36.9066C579.397 36.8787 579.5 36.8496 579.603 36.8226ZM521.162 23.9466V35.6312C521.077 35.6262 520.993 35.6221 520.908 35.6175C520.993 35.6221 521.078 35.6272 521.163 35.6321V23.9466L513.723 20.6409L521.162 23.9466ZM590.385 35.5208C589.936 35.5208 589.49 35.5276 589.049 35.5394C589.491 35.5279 589.936 35.5218 590.386 35.5218C590.825 35.5218 591.258 35.5261 591.687 35.5364C591.258 35.5261 590.824 35.5208 590.385 35.5208ZM168.18 16.9202V16.9212L201.536 16.3011H210.093C210.553 16.3011 211.007 16.3064 211.456 16.3167L211.455 16.3157C211.006 16.3054 210.551 16.3001 210.092 16.3001H201.536L168.18 16.9202ZM274.16 88.8655C274.282 88.8465 274.405 88.8246 274.527 88.8001C274.405 88.8246 274.282 88.8465 274.16 88.8655ZM358.486 84.8704L358.655 84.5921C358.681 84.5475 358.705 84.5017 358.73 84.4564C358.652 84.5977 358.571 84.736 358.486 84.8704ZM507.532 83.9144C507.599 84.0435 507.666 84.1702 507.735 84.2943C507.666 84.1702 507.599 84.0435 507.532 83.9144Z" fill="white"/>
<path d="M938.979 48.5259L934.745 50.2651L915.915 103.087C914.014 108.378 911.864 112.967 909.467 116.852C907.152 120.737 904.507 123.961 901.531 126.524C898.638 129.087 895.29 130.988 891.487 132.228C887.685 133.468 883.427 134.088 878.715 134.088C874.995 134.088 870.944 133.716 866.562 132.972L868.671 115.612C870.324 115.86 871.854 116.025 873.259 116.108C874.747 116.273 876.069 116.356 877.227 116.356C880.368 116.356 882.972 115.818 885.039 114.744C887.106 113.752 888.924 112.057 890.495 109.66C891.401 108.392 892.305 106.863 893.211 105.074L870.641 51.4565L865.57 49.7661V37.3657L900.043 36.1265V48.5259L895.245 50.5405L904.4 78.8784L911.737 51.4761L906.987 49.7661V37.3657L938.979 36.1265V48.5259Z" fill="#F353B8"/>
<path d="M853.595 34.8858C856.24 34.8858 859.093 35.2994 862.151 36.126L860.911 63.9024H846.774L845.297 54.169C845.004 54.1275 844.712 54.1065 844.419 54.1065C842.6 54.1065 840.74 54.7269 838.839 55.9669C837.902 56.5373 837.075 57.1675 836.358 57.8585V88.6358L845.038 91.3067V103.707H804.737V91.3067L811.558 88.6544V52.3702L804.737 49.6426V37.2422L830.902 36.002L833.13 44.5421C836.186 41.7531 839.164 39.5676 842.062 37.9864C845.7 35.9197 849.544 34.8858 853.595 34.8858Z" fill="#F353B8"/>
<path d="M768.629 34.8858C777.474 34.8858 784.047 36.7045 788.346 40.3419C792.727 43.9792 794.917 49.5595 794.917 57.0821V88.2755L801.737 91.3077V103.707L775.573 104.947L772.932 95.0196C770.37 98.2477 767.491 100.773 764.289 102.592C760.734 104.576 756.766 105.567 752.385 105.567C746.35 105.567 741.555 103.666 738 99.8633C734.445 96.0607 732.668 90.9766 732.668 84.6114C732.668 80.0647 733.661 76.3446 735.645 73.4512C737.629 70.5579 740.646 68.4084 744.696 67.003C748.83 65.5977 754.079 64.8946 760.444 64.8946H770.117V61.671C770.117 58.5296 769.455 56.2974 768.133 54.9747C766.81 53.5693 764.661 52.8663 761.685 52.8663C760.445 52.8663 759.039 52.949 757.469 53.1143C756.334 53.2337 755.156 53.4182 753.936 53.6671L752.385 60.5547H737.504L736.513 39.8458C742.96 38.1925 748.83 36.9527 754.12 36.126C759.494 35.2994 764.33 34.8858 768.629 34.8858ZM764.537 76.0547C761.975 76.0547 760.156 76.4684 759.081 77.295C758.006 78.1216 757.469 79.5682 757.469 81.6348C757.469 83.9495 757.965 85.6441 758.957 86.7188C760.032 87.7935 761.354 88.3311 762.925 88.3311C764.247 88.3311 765.611 88.0002 767.017 87.3389C768.128 86.7503 769.161 85.9783 770.117 85.0274V76.0547H764.537Z" fill="#F353B8"/>
<path d="M727.854 28.0653L721.182 30.994L704.636 57.6532L725.616 89.0721L730.83 91.3075V103.707H691.396V91.3075L696.875 88.3905L684.399 67.7469H677.881V88.1122L684.701 91.3075V103.707H645.02V91.3075L652.46 88.3309V31.5106L645.02 28.6854V16.286L684.701 15.6659V27.8182L677.881 31.1405V49.7665H685.902L696.804 30.6639L691.025 28.6854V16.286L727.854 15.6659V28.0653Z" fill="#F353B8"/>
<path d="M590.469 34.8858C597.495 34.8858 603.158 36.2084 607.457 38.8536C611.838 41.499 615.022 45.0959 617.006 49.6426C618.99 54.1893 619.981 59.3146 619.981 65.0186C619.981 66.8373 619.899 68.6973 619.733 70.5987C619.568 72.4173 619.28 74.2775 618.866 76.1788H581.555C581.627 76.6378 581.704 77.0929 581.789 77.543C582.368 80.519 583.566 82.9581 585.385 84.8594C587.203 86.6781 589.932 87.587 593.569 87.587C595.967 87.587 598.613 87.1734 601.506 86.3467C604.482 85.4374 607.582 84.1563 610.806 82.503L618.866 95.2755C613.823 98.7475 608.656 101.351 603.365 103.087C598.074 104.74 592.825 105.567 587.617 105.567C581.169 105.567 575.506 104.286 570.629 101.724C565.834 99.161 562.114 95.3581 559.469 90.3155C556.823 85.2727 555.5 79.031 555.5 71.5909C555.5 63.9027 556.906 57.3302 559.717 51.8741C562.61 46.4181 566.661 42.243 571.869 39.3497C577.077 36.3738 583.277 34.8859 590.469 34.8858ZM588.361 52.2462C586.129 52.2462 584.476 53.0319 583.401 54.6026C582.409 56.0906 581.748 58.0333 581.417 60.4307C581.278 61.4008 581.17 62.3927 581.09 63.4063H594.453C594.423 61.4525 594.295 59.7577 594.065 58.3223C593.735 56.2557 593.114 54.7264 592.205 53.7344C591.378 52.7425 590.097 52.2462 588.361 52.2462Z" fill="#F353B8"/>
<path d="M546.048 88.295L552.867 91.3068V103.707L526.703 104.947L524.306 96.6056C521.343 99.3273 518.382 101.447 515.419 102.963C511.947 104.699 508.144 105.567 504.011 105.568C499.133 105.568 494.834 104.328 491.114 101.848C487.477 99.2851 484.625 95.5234 482.559 90.5636C480.492 85.5209 479.458 79.3617 479.458 72.087C479.458 59.191 482.723 49.7667 489.254 43.8146C495.867 37.8625 505.292 34.8859 517.526 34.8859C518.766 34.8859 520.007 34.9236 521.247 34.9962V23.3116L513.807 20.006V7.60559L546.048 6.36536V88.295ZM516.783 52.2462C512.319 52.2462 509.26 53.8582 507.606 57.0822C506.036 60.2235 505.251 64.4399 505.251 69.7306C505.251 73.2853 505.539 76.4273 506.118 79.1554C506.779 81.8005 507.731 83.8667 508.971 85.3546C510.293 86.8426 511.947 87.587 513.931 87.587C515.419 87.587 516.989 87.1734 518.643 86.3468C519.469 85.8921 520.338 85.3555 521.247 84.7355V52.6603C519.604 52.385 518.116 52.2462 516.783 52.2462Z" fill="#F353B8"/>
<path d="M425.9 34.8858C432.927 34.8858 438.59 36.2092 442.889 38.8546C447.27 41.4999 450.453 45.0959 452.438 49.6426C454.421 54.1893 455.413 59.3147 455.413 65.0186C455.413 66.8373 455.33 68.6973 455.165 70.5987C455 72.4174 454.71 74.2774 454.297 76.1788H416.985C417.058 76.6379 417.136 77.0929 417.221 77.543C417.799 80.519 418.998 82.9581 420.816 84.8594C422.635 86.678 425.364 87.587 429.001 87.587C431.398 87.5869 434.043 87.1734 436.937 86.3467C439.913 85.4374 443.013 84.1564 446.237 82.503L454.297 95.2755C449.254 98.7474 444.087 101.351 438.797 103.087C433.506 104.74 428.257 105.567 423.049 105.567C416.601 105.567 410.937 104.286 406.06 101.724C401.265 99.161 397.545 95.3581 394.899 90.3155C392.254 85.2727 390.932 79.031 390.932 71.5909C390.932 63.9027 392.337 57.3302 395.147 51.8741C398.041 46.418 402.092 42.2431 407.3 39.3497C412.508 36.3736 418.708 34.8858 425.9 34.8858ZM423.792 52.2462C421.56 52.2463 419.907 53.032 418.832 54.6026C417.84 56.0906 417.179 58.0335 416.849 60.4307C416.71 61.4008 416.602 62.3927 416.521 63.4063H429.884C429.854 61.4525 429.726 59.7577 429.496 58.3223C429.165 56.2558 428.546 54.7264 427.637 53.7344C426.81 52.7424 425.528 52.2462 423.792 52.2462Z" fill="#F353B8"/>
<path d="M313.914 132.228V119.828L323.71 115.488L320.734 119.332V50.3863L323.338 53.3624L313.914 49.6423V37.242L340.079 36.002L342.683 46.9142L340.079 45.4262C343.964 42.0368 347.684 39.4327 351.239 37.614C354.876 35.7953 358.762 34.886 362.895 34.886C367.773 34.886 372.03 36.1673 375.667 38.7301C379.305 41.2101 382.157 44.9302 384.224 49.8903C386.29 54.7677 387.324 60.8025 387.324 67.9947C387.324 76.4269 385.877 83.4124 382.984 88.9511C380.173 94.4899 376.205 98.6647 371.079 101.475C366.037 104.203 360.167 105.567 353.471 105.567C351.735 105.567 349.958 105.443 348.139 105.195C346.403 105.03 344.584 104.782 342.683 104.451L345.535 101.847V119.332L343.303 115.984L353.595 119.828V132.228H313.914ZM349.999 88.2071C354.463 88.2071 357.48 86.5951 359.051 83.371C360.704 80.1469 361.531 75.8895 361.531 70.5987C361.531 67.044 361.2 63.9439 360.539 61.2985C359.96 58.6532 359.051 56.5864 357.811 55.0984C356.571 53.6104 354.918 52.8664 352.851 52.8664C351.363 52.8664 349.792 53.2797 348.139 54.1064C346.485 54.9331 344.667 56.1731 342.683 57.8265L345.535 51.7503V91.6792L342.683 87.2151C345.493 87.8764 347.932 88.2071 349.999 88.2071Z" fill="#F353B8"/>
<path d="M278.672 34.8858C287.517 34.8858 294.09 36.7044 298.389 40.3419C302.77 43.9792 304.96 49.5595 304.96 57.0821V88.2755L311.78 91.3067V103.707L285.616 104.947L282.975 95.0196C280.413 98.2477 277.534 100.773 274.332 102.592C270.777 104.576 266.809 105.567 262.428 105.567C256.393 105.567 251.598 103.666 248.043 99.8633C244.488 96.0607 242.711 90.9766 242.711 84.6114C242.711 80.0647 243.704 76.3446 245.688 73.4512C247.672 70.5579 250.689 68.4084 254.739 67.003C258.873 65.5977 264.122 64.8946 270.487 64.8946H280.16V61.671C280.16 58.5296 279.498 56.2974 278.176 54.9747C276.853 53.5693 274.704 52.8663 271.728 52.8663C270.488 52.8663 269.082 52.949 267.512 53.1143C266.377 53.2338 265.199 53.4182 263.979 53.6671L262.428 60.5547H247.547L246.556 39.8458C253.003 38.1925 258.873 36.9527 264.163 36.126C269.537 35.2994 274.373 34.8858 278.672 34.8858ZM274.58 76.0547C272.017 76.0547 270.199 76.4684 269.124 77.295C268.049 78.1216 267.512 79.5682 267.512 81.6348C267.512 83.9495 268.008 85.6441 269 86.7188C270.075 87.7935 271.397 88.3311 272.968 88.3311C274.29 88.3311 275.654 88.0002 277.06 87.3389C278.171 86.7503 279.204 85.9783 280.16 85.0274V76.0547H274.58Z" fill="#F353B8"/>
<path d="M210.177 15.6659C217.534 15.6659 223.486 16.9883 228.033 19.6337C232.663 22.1963 236.052 25.627 238.201 29.9257C240.351 34.2244 241.426 38.9783 241.426 44.1864C241.426 49.7251 240.144 54.8504 237.581 59.5624C235.101 64.2745 231.133 68.0358 225.677 70.8466C220.221 73.6572 213.111 75.0624 204.349 75.0624H201.124V88.3397L211.045 91.3075V103.707H168.264V91.3075L175.704 88.413V31.4266L168.264 28.6854V16.286L201.62 15.6659H210.177ZM201.124 57.0829H204.349C208.151 57.0829 210.962 55.9248 212.78 53.6102C214.682 51.2956 215.633 48.3197 215.633 44.6825C215.633 41.2104 214.806 38.482 213.152 36.4979C211.582 34.5141 209.226 33.5224 206.085 33.5223H201.124V57.0829Z" fill="#F353B8"/>
<path d="M111.925 34.8858C120.77 34.8859 127.342 36.7047 131.641 40.3419C136.022 43.9792 138.213 49.5595 138.213 57.0821V88.2755L145.033 91.3077V103.707L118.868 104.947L116.228 95.0196C113.666 98.2478 110.786 100.773 107.584 102.592C104.029 104.576 100.061 105.567 95.6797 105.567C89.6451 105.567 84.8506 103.666 81.2959 99.8633C77.7412 96.0607 75.9639 90.9767 75.9639 84.6114C75.9639 80.0648 76.9556 76.3446 78.9395 73.4512C80.9235 70.5578 83.9414 68.4084 87.9922 67.003C92.1256 65.5977 97.3749 64.8946 103.74 64.8946H113.412V61.671C113.412 58.5298 112.751 56.2974 111.429 54.9747C110.106 53.5693 107.956 52.8663 104.98 52.8663C103.741 52.8663 102.335 52.949 100.765 53.1143C99.6302 53.2337 98.4522 53.4183 97.2314 53.6671L95.6797 60.5547H80.7998L79.8076 39.8458C86.2557 38.1924 92.1253 36.9527 97.416 36.126C102.789 35.2994 107.626 34.8858 111.925 34.8858ZM107.832 76.0547C105.269 76.0548 103.451 76.4683 102.376 77.295C101.301 78.1217 100.765 79.5683 100.765 81.6348C100.765 83.9493 101.26 85.6441 102.252 86.7188C103.327 87.7935 104.65 88.3311 106.221 88.3311C107.543 88.331 108.907 88.0002 110.312 87.3389C111.424 86.7505 112.456 85.9788 113.412 85.0284V76.0547H107.832Z" fill="#F353B8"/>
<path d="M47.7578 28.0653L39.9453 31.5907V85.7274H54.75L57.3057 73.327H72.1865V103.707H7.08496V91.3075L14.5254 88.3671V31.6249L7.08496 28.6854V16.285L47.7578 15.6659V28.0653Z" fill="#F353B8"/>
</svg>
